<?xml version="1.0" encoding="UTF-8"?>
<svg version="1.1" xmlns="http://www.w3.org/2000/svg" width="1448" height="2047">
<path d="M0 0 C0.97706909 0.06552063 1.95413818 0.13104126 2.96081543 0.19854736 C62.53232225 4.19332599 121.54526921 11.75123344 180 24 C181.03785645 24.21659271 181.03785645 24.21659271 182.09667969 24.43756104 C266.69397814 42.13996728 353.45178584 69.46818619 471.11328125 152.30078125 C473.38324398 154.42330391 475.67903129 156.44718077 478.0625 158.4375 C508.02059309 184.65083145 530.26542009 224.12961788 534 264 C534.47881357 272.88009826 534.38783975 281.77738325 534.34592553 290.66721472 C534.3324988 294.24749768 534.33695769 297.82776939 534.33906448 301.4080708 C534.34039366 307.66499766 534.33081453 313.92183086 534.31386757 320.17873383 C534.28877801 329.48269191 534.2813092 338.78660703 534.27770043 348.09059538 C534.27170811 362.78969924 534.25542167 377.48876878 534.23188791 392.18785431 C534.19464885 415.50753992 534.18538597 438.82717287 534.18509701 462.14688525 C534.18488827 471.12838642 534.18388167 480.10988758 534.18299675 489.0913887 C534.1829047 490.08902298 534.18281266 491.08665725 534.18271782 492.11452287 C534.18044342 515.831885 534.17150957 539.54924266 534.15917969 563.26660156 C534.15864904 564.30371161 534.15811839 565.34082166 534.15757166 566.40935928 C534.14506276 590.62643437 534.12614409 614.84349024 534.09332275 639.06054688 C534.09190988 640.10345234 534.090497 641.14635781 534.08904131 642.22086647 C534.07759803 650.62872091 534.06593103 659.03657504 534.05420559 667.4444291 C534.00606496 702.09135403 533.98801561 736.7381848 534.00477722 771.38514131 C534.00710953 776.27431091 534.0090537 781.16348059 534.01073837 786.05265045 C534.01107522 787.01483402 534.01141206 787.97701759 534.01175911 788.96835823 C534.01620962 804.46355383 533.98812021 819.95852889 533.94735265 835.45366456 C533.90698791 851.01010052 533.89855365 866.56628395 533.92319699 882.12275538 C533.93681671 891.36876092 533.9251008 900.61394111 533.87757365 909.85983873 C533.84829813 916.03121282 533.85148379 922.20201245 533.88130573 928.37338265 C533.89736592 931.89257695 533.89904263 935.41018473 533.86113288 938.92924675 C533.82782475 942.71787893 533.84948262 946.50229799 533.88533211 950.29081345 C533.86243579 951.38682637 533.83953947 952.48283929 533.81594932 953.61206472 C533.93387188 959.4278882 533.93387188 959.4278882 536.97855793 964.19718137 C539.24601548 965.97711015 541.53729749 967.50678085 544 969 C551.31212568 974.76688365 558.21271893 980.87743791 565.01171875 987.23046875 C567.29393584 989.35916392 569.61986551 991.41814379 572 993.4375 C579.87058203 1000.25532902 587.36407647 1007.80527219 594.08984375 1015.75390625 C595.6416553 1017.57863353 597.21807506 1019.36880495 598.81640625 1021.15234375 C612.56410788 1036.58650347 624.39546742 1053.27206939 635 1071 C635.65693848 1072.09513916 635.65693848 1072.09513916 636.32714844 1073.21240234 C652.43182719 1100.35628368 662.57030232 1129.97813371 668 1161 C668.13132324 1161.70866211 668.26264648 1162.41732422 668.39794922 1163.14746094 C676.72067154 1209.4885656 665.09231094 1258.31932002 645 1300 C644.63068359 1300.77134277 644.26136719 1301.54268555 643.88085938 1302.33740234 C632.06430374 1326.69999451 615.79331542 1348.69059857 598 1369 C597.37609375 1369.71293213 596.7521875 1370.42586426 596.109375 1371.16040039 C590.23146525 1377.78710124 584.07860408 1384.10760483 577.81689453 1390.3684082 C576.12892145 1392.05857346 574.44914276 1393.75660834 572.76953125 1395.45507812 C566.88858317 1401.36611012 560.92031814 1406.90249704 554.39013672 1412.09790039 C551.86470984 1414.10766554 549.44255015 1416.20551745 547.02612305 1418.34326172 C522.1160938 1440.28449048 492.88789775 1458.77889408 464 1475 C463.17226074 1475.46954102 462.34452148 1475.93908203 461.49169922 1476.42285156 C423.26625837 1498.03592208 383.25869596 1516.02417596 342 1531 C340.69870081 1531.47782916 339.39759824 1531.9561941 338.09667969 1532.43505859 C254.88652835 1563.01128782 167.16681435 1581.60481262 10.48059082 1597.84570312 C8.03069534 1597.9980907 5.58128171 1598.15697268 3.13183594 1598.31640625 C-50.580871 1601.73987118 -105.30435441 1601.63644862 -159 1598 C-159.95519531 1597.93683594 -160.91039062 1597.87367187 -161.89453125 1597.80859375 C-258.9189735 1591.36556438 -355.54989512 1575.43743458 -664 1444 C-664.76151367 1443.4652002 -665.52302734 1442.93040039 -666.30761719 1442.37939453 C-677.24267233 1434.68324261 -687.73521124 1426.56671032 -698 1418 C-698.57588867 1417.52320801 -699.15177734 1417.04641602 -699.74511719 1416.55517578 C-711.98233676 1406.42133917 -723.46881738 1395.62204312 -734.75 1384.4375 C-736.06291016 1383.14416748 -736.06291016 1383.14416748 -737.40234375 1381.82470703 C-743.3710429 1375.86390895 -748.73800126 1369.58677651 -754 1363 C-754.86362058 1361.97264522 -755.73201744 1360.94924234 -756.609375 1359.93359375 C-778.10515568 1334.86825825 -778.10515568 1334.86825825 -778.14539433 1326.53949928 C-778.15231896 1325.59543398 -778.1592436 1324.65136867 -778.16637808 1323.67869532 C-778.1689222 1322.6343685 -778.17146631 1321.59004169 -778.17408752 1320.5140686 C-778.18058648 1319.4101003 -778.18708543 1318.306132 -778.19378132 1317.16871011 C-778.21427188 1313.4440237 -778.22742395 1309.7193483 -778.24047852 1305.99462891 C-778.25002361 1304.01153141 -778.25957452 1302.02843391 -778.26960696 1300.04533882 C-778.3172322 1290.60578235 -778.34985515 1281.16619213 -778.37890625 1271.7265625 C-778.38121383 1270.98132637 -778.38352141 1270.23609024 -778.38589892 1269.4682712 C-778.43135201 1254.666966 -778.46986891 1239.86564597 -778.49662876 1225.06429482 C-778.50261781 1221.80865078 -778.50870345 1218.55300694 -778.51489258 1215.29736328 C-778.51642556 1214.48819479 -778.51795854 1213.6790263 -778.51953798 1212.84533755 C-778.54522321 1199.75222599 -778.60207595 1186.65943727 -778.67135788 1173.56649156 C-778.74192545 1160.11922794 -778.78207798 1146.67213087 -778.79337829 1133.22468507 C-778.80052708 1125.67651544 -778.82118006 1118.12890592 -778.87640572 1110.58092117 C-778.92343414 1104.14872353 -778.94307834 1097.71717029 -778.92752422 1091.28480692 C-778.92044176 1088.00581912 -778.9304527 1084.72849119 -778.96710205 1081.44966125 C-779.22920355 1056.70027 -779.22920355 1056.70027 -770 1047 C-768.9505595 1045.5740381 -767.91655326 1044.1363473 -766.91015625 1042.6796875 C-765.9656087 1041.40797551 -765.01641843 1040.13969802 -764.0625 1038.875 C-763.55307861 1038.19759766 -763.04365723 1037.52019531 -762.51879883 1036.82226562 C-758.29807612 1031.27136374 -753.75462443 1026.09956777 -749 1021 C-747.9324811 1019.77518967 -746.86986215 1018.54608917 -745.8125 1017.3125 C-736.5682546 1006.74459821 -726.94248709 996.68353144 -716.47558594 987.32275391 C-715.09232098 986.08275894 -713.72146896 984.82895608 -712.3515625 983.57421875 C-696.04397099 968.68132366 -696.04397099 968.68132366 -691 967 C-691.0007799 966.3910035 -691.00155981 965.78200701 -691.00236334 965.15455607 C-691.08714235 898.81471746 -691.16566289 832.47487263 -691.2117157 766.13499451 C-691.21240598 765.14317123 -691.21309627 764.15134795 -691.21380747 763.12946942 C-691.22877392 741.57163043 -691.24262456 720.01379086 -691.25532665 698.45595041 C-691.26156303 687.88314976 -691.26804584 677.31034926 -691.2746582 666.73754883 C-691.275312 665.68545886 -691.27596579 664.6333689 -691.2766394 663.54939742 C-691.29792525 629.48184219 -691.33546615 595.41432858 -691.3814861 561.34679854 C-691.42871305 526.32193109 -691.45944204 491.29708664 -691.46957495 456.27218788 C-691.47101561 451.31893449 -691.47264379 446.36568119 -691.47438622 441.4124279 C-691.47472333 440.43760924 -691.47506045 439.46279057 -691.47540778 438.45843195 C-691.48130374 422.80122655 -691.50445984 407.14409255 -691.53416017 391.4869162 C-691.56368729 375.72515017 -691.57481723 359.96345452 -691.56750689 344.20166183 C-691.56371986 334.85088019 -691.57369947 325.50035726 -691.60398772 316.1496226 C-691.62288361 309.88476088 -691.62321678 303.6200665 -691.60915907 297.35519275 C-691.6016863 293.79734393 -691.60161286 290.23998053 -691.62441591 286.68218596 C-691.87431344 239.33601699 -675.75150533 200.06068946 -643.49609375 165.68359375 C-641.36940178 163.39715027 -639.32927439 161.07012916 -637.3125 158.6875 C-634.48082285 155.42637418 -631.42756221 152.61160206 -628.1328125 149.82421875 C-625.88299759 147.89992651 -623.72974748 145.89164215 -621.5625 143.875 C-578.81687061 105.52680299 -524.32220327 79.96406521 -471 60 C-469.79714355 59.54915039 -468.59428711 59.09830078 -467.35498047 58.63378906 C-381.32547706 26.66344215 -289.54583669 10.22218637 -168 0 C-167.11955017 -0.06058594 -166.23910034 -0.12117187 -165.33197021 -0.18359375 C-110.6239946 -3.91589198 -54.70006095 -3.77535257 0 0 Z " fill="#809BB8" transform="translate(778,256)"/>
<path d="M0 0 C4.62182643 -0.00435398 9.24346296 -0.0181543 13.86523438 -0.04101562 C45.77682572 -0.19547406 77.41859964 0.76125509 109.23632812 3.24023438 C110.19068504 3.31430008 111.14504196 3.38836578 112.12831879 3.4646759 C115.03127902 3.69107313 117.93403028 3.91992101 120.83666992 4.15039062 C121.70133597 4.21902565 122.56600203 4.28766068 123.45687008 4.35837555 C169.40470148 8.06746017 214.97132074 15.41418717 260.16210938 24.38476562 C260.98867538 24.54824997 261.81524139 24.71173431 262.66685486 24.88017273 C267.6704039 25.88394184 272.58844371 27.04925522 277.49414062 28.46289062 C280.93272599 29.4376463 284.39404631 30.31226298 287.86132812 31.17773438 C288.54783447 31.35022705 289.23434082 31.52271973 289.94165039 31.70043945 C293.29401772 32.53590465 296.64587986 33.32983702 300.02148438 34.06835938 C359.38307692 47.14098236 423.03264749 71.28781702 472.23632812 107.24023438 C472.81318359 107.66014648 473.39003906 108.08005859 473.984375 108.51269531 C481.68442889 114.16204757 488.88730754 120.26778673 495.79101562 126.86230469 C497.21030193 128.21542156 498.6450789 129.55223029 500.08007812 130.88867188 C513.01147479 143.27520632 524.70260748 159.68484991 529.23632812 177.24023438 C529.53990234 178.22056641 529.53990234 178.22056641 529.84960938 179.22070312 C535.23697523 198.75448545 528.9335261 219.04852561 519.61132812 236.23632812 C500.88986257 267.24375546 469.18264212 288.03162803 438.23632812 305.24023438 C437.44049316 305.6847998 436.6446582 306.12936523 435.82470703 306.58740234 C360.48685345 348.31978552 271.837249 367.53673292 85.09570312 389.86132812 C83.99904579 389.925853 82.90238846 389.99037788 81.77249908 390.05685806 C57.49998522 391.44937631 33.26025 391.70347133 8.953125 391.63134766 C3.13720111 391.61421741 -2.67831158 391.62447111 -8.49422169 391.64168262 C-50.08608294 391.74551323 -91.40269061 389.61988101 -132.76367188 385.24023438 C-134.09646882 385.10353409 -135.4293149 384.96731207 -136.76220703 384.83154297 C-217.84359882 376.52922296 -299.39559529 360.35826228 -412.76367188 314.24023438 C-413.6236377 313.83482422 -414.48360352 313.42941406 -415.36962891 313.01171875 C-440.47027143 301.13907111 -464.50515841 286.34331931 -484.76367188 267.24023438 C-486.11413086 266.09003356 -487.46820462 264.94406094 -488.82617188 263.80273438 C-505.73484998 248.96104899 -521.33050882 226.79857052 -522.93505859 203.78173828 C-524.35512781 175.73916142 -514.06963944 154.78525561 -495.45117188 134.17773438 C-451.21673848 86.53650196 -381.63744181 58.81239337 -320.28613281 41.94482422 C-317.87746145 41.2720188 -315.48006706 40.56971956 -313.08398438 39.85351562 C-275.46725495 28.66786466 -236.84640669 20.63532131 -198.06933594 14.74267578 C-195.20287876 14.30699123 -192.33846431 13.86059626 -189.47460938 13.40820312 C-185.46752437 12.78081466 -181.45618986 12.19070198 -177.44042969 11.62158203 C-175.5744301 11.35574006 -173.70924647 11.08413426 -171.84472656 10.80810547 C-143.30134874 6.61991539 -114.5066762 4.55282918 -85.76367188 2.24023438 C-84.68017456 2.15170197 -83.59667725 2.06316956 -82.48034668 1.97195435 C-55.04911737 -0.21784197 -27.49868506 0.02205081 0 0 Z " fill="#3465A4" transform="translate(692.763671875,332.759765625)"/>
<path d="M0 0 C4.14299221 2.32659311 7.76882756 4.41876131 11.25 7.6875 C14.6162146 10.77798371 18.06116875 13.70167108 21.625 16.5625 C25.42885715 19.64685148 28.94832127 22.82443849 32.34765625 26.34375 C34.03757536 28.03766419 35.80059906 29.5774832 37.625 31.125 C45.63180665 38.03925993 53.25570778 45.6772001 60.08984375 53.75390625 C61.6416553 55.57863353 63.21807506 57.36880495 64.81640625 59.15234375 C78.56410788 74.58650347 90.39546742 91.27206939 101 109 C101.43795898 109.73009277 101.87591797 110.46018555 102.32714844 111.21240234 C118.43182719 138.35628368 128.57030232 167.97813371 134 199 C134.13132324 199.70866211 134.26264648 200.41732422 134.39794922 201.14746094 C142.72067154 247.4885656 131.09231094 296.31932002 111 338 C110.63068359 338.77134277 110.26136719 339.54268555 109.88085938 340.33740234 C98.06430374 364.69999451 81.79331542 386.69059857 64 407 C63.37609375 407.71293213 62.7521875 408.42586426 62.109375 409.16040039 C56.23146525 415.78710124 50.07860408 422.10760483 43.81689453 428.3684082 C42.12892145 430.05857346 40.44914276 431.75660834 38.76953125 433.45507812 C32.88858317 439.36611012 26.92031814 444.90249704 20.39013672 450.09790039 C17.86470984 452.10766554 15.44255015 454.20551745 13.02612305 456.34326172 C-11.8839062 478.28449048 -41.11210225 496.77889408 -70 513 C-70.82773926 513.46954102 -71.65547852 513.93908203 -72.50830078 514.42285156 C-110.73374163 536.03592208 -150.74130404 554.02417596 -192 569 C-193.30129919 569.47782916 -194.60240176 569.9561941 -195.90332031 570.43505859 C-279.11347165 601.01128782 -366.83318565 619.60481262 -523.51940918 635.84570312 C-525.96930466 635.9980907 -528.41871829 636.15697268 -530.86816406 636.31640625 C-584.580871 639.73987118 -639.30435441 639.63644862 -693 636 C-693.95519531 635.93683594 -694.91039062 635.87367188 -695.89453125 635.80859375 C-792.9189735 629.36556438 -889.54989512 613.43743458 -1198 482 C-1198.76151367 481.4652002 -1199.52302734 480.93040039 -1200.30761719 480.37939453 C-1211.24267233 472.68324261 -1221.73521124 464.56671032 -1232 456 C-1232.57588867 455.52320801 -1233.15177734 455.04641602 -1233.74511719 454.55517578 C-1245.98233676 444.42133917 -1257.46881738 433.62204312 -1268.75 422.4375 C-1269.62527344 421.57527832 -1270.50054688 420.71305664 -1271.40234375 419.82470703 C-1277.3710429 413.86390895 -1282.73800126 407.58677651 -1288 401 C-1288.86362058 399.97264522 -1289.73201744 398.94924234 -1290.609375 397.93359375 C-1312.10515568 372.86825825 -1312.10515568 372.86825825 -1312.14539433 364.53949928 C-1312.15231896 363.59543398 -1312.1592436 362.65136867 -1312.16637808 361.67869532 C-1312.17019426 360.1122051 -1312.17019426 360.1122051 -1312.17408752 358.5140686 C-1312.18058648 357.4101003 -1312.18708543 356.306132 -1312.19378132 355.16871011 C-1312.21427188 351.4440237 -1312.22742395 347.7193483 -1312.24047852 343.99462891 C-1312.25002361 342.01153141 -1312.25957452 340.02843391 -1312.26960696 338.04533882 C-1312.3172322 328.60578235 -1312.34985515 319.16619213 -1312.37890625 309.7265625 C-1312.38121383 308.98132637 -1312.38352141 308.23609024 -1312.38589892 307.4682712 C-1312.43135201 292.666966 -1312.46986891 277.86564597 -1312.49662876 263.06429482 C-1312.50261781 259.80865078 -1312.50870345 256.55300694 -1312.51489258 253.29736328 C-1312.51642556 252.48819479 -1312.51795854 251.6790263 -1312.51953798 250.84533755 C-1312.54522321 237.75222599 -1312.60207595 224.65943727 -1312.67135788 211.56649156 C-1312.74192545 198.11922794 -1312.78207798 184.67213087 -1312.79337829 171.22468507 C-1312.80052708 163.67651544 -1312.82118006 156.12890592 -1312.87640572 148.58092117 C-1312.92343414 142.14872353 -1312.94307834 135.71717029 -1312.92752422 129.28480692 C-1312.92044176 126.00581912 -1312.9304527 122.72849119 -1312.96710205 119.44966125 C-1313.22920355 94.70027 -1313.22920355 94.70027 -1304 85 C-1302.9505595 83.5740381 -1301.91655326 82.1363473 -1300.91015625 80.6796875 C-1299.9656087 79.40797551 -1299.01641843 78.13969802 -1298.0625 76.875 C-1297.55307861 76.19759766 -1297.04365723 75.52019531 -1296.51879883 74.82226562 C-1292.29807612 69.27136374 -1287.75462443 64.09956777 -1283 59 C-1281.9324811 57.77518967 -1280.86986215 56.54608917 -1279.8125 55.3125 C-1270.5682546 44.74459821 -1260.94248709 34.68353144 -1250.47558594 25.32275391 C-1249.09232098 24.08275894 -1247.72146896 22.82895608 -1246.3515625 21.57421875 C-1230.04397099 6.68132366 -1230.04397099 6.68132366 -1225 5 C-1224.99902319 5.57294072 -1224.99804638 6.14588144 -1224.99703997 6.736184 C-1224.93866088 40.75709486 -1224.86478365 74.7779346 -1224.77101372 108.79876613 C-1224.75974669 112.89139717 -1224.74860806 116.98402855 -1224.73754883 121.07666016 C-1224.73534514 121.89136702 -1224.73314146 122.70607388 -1224.730871 123.54546882 C-1224.69557997 136.70561317 -1224.67066971 149.86575746 -1224.64965298 163.02593146 C-1224.62782543 176.54778439 -1224.59470957 190.06957637 -1224.55129844 203.59137738 C-1224.52490099 211.92281509 -1224.50711818 220.25417698 -1224.50065396 228.58565439 C-1224.49536338 234.31298433 -1224.47902489 240.04021918 -1224.45433434 245.767498 C-1224.44044367 249.06286721 -1224.43274984 252.35803569 -1224.43499184 255.65343857 C-1224.44306895 273.01537617 -1223.89694386 289.88720669 -1218.3125 306.5 C-1218.05686279 307.27786865 -1217.80122559 308.0557373 -1217.5378418 308.85717773 C-1209.0488682 333.93950121 -1195.21387504 355.24769862 -1177.2578125 374.5546875 C-1175.31501563 376.65882391 -1173.46383928 378.80582946 -1171.625 381 C-1117.54153677 443.08172188 -1024.89150437 476.76861 -759.6875 535.5 C-758.6887384 535.60638794 -757.68997681 535.71277588 -756.66094971 535.8223877 C-742.08200512 537.36623387 -727.49726897 538.6923464 -712.875 539.75 C-712.06533783 539.80889404 -711.25567566 539.86778809 -710.42147827 539.9284668 C-689.82728727 541.40710793 -669.29232078 542.16737761 -648.64453125 542.203125 C-647.51261541 542.20595238 -646.38069958 542.20877975 -645.21448326 542.21169281 C-639.19808102 542.22657486 -633.18170198 542.23586774 -627.1652832 542.24023438 C-622.31526983 542.24457271 -617.46543901 542.25829845 -612.61547852 542.28125 C-499.42000481 546.86033221 -499.42000481 546.86033221 -391 523 C-388.87928143 522.678679 -386.75314205 522.39277946 -384.625 522.125 C-380.07307229 521.50176446 -375.68760939 520.74959159 -371.25 519.5625 C-365.33011488 517.9828002 -359.36960712 517.00125116 -353.31738281 516.09008789 C-349.01846423 515.42270399 -345.12292065 514.43431183 -341 513 C-339.33987218 512.67316234 -337.67250087 512.38110169 -336 512.125 C-331.70807194 511.38560997 -327.61257601 510.363493 -323.4375 509.125 C-317.14557529 507.25892751 -310.82264743 505.79217682 -304.39233398 504.48291016 C-300.06133299 503.57189135 -296.07345774 502.3371422 -291.95605469 500.72045898 C-288.80755726 499.56079649 -285.57505145 498.83112941 -282.3125 498.0625 C-273.04968856 495.82384255 -263.91350001 493.22649264 -255.01953125 489.78125 C-246.20031882 486.36956241 -237.28206036 483.21723934 -228.1875 480.625 C-223.41487523 479.21007438 -218.91474556 477.34824133 -214.34375 475.38671875 C-210.55655831 473.81609603 -206.72517419 472.4066991 -202.875 471 C-197.50627456 469.02554355 -192.3641528 466.87517149 -187.30859375 464.17578125 C-185.51025955 463.25987838 -183.66685344 462.43229546 -181.81005859 461.64160156 C-178.06860859 460.04720869 -174.39424252 458.3231667 -170.73046875 456.55859375 C-170.05657608 456.23490814 -169.38268341 455.91122253 -168.68836975 455.57772827 C-147.51583008 445.41278954 -147.51583008 445.41278954 -127 434 C-126.16082031 433.49903809 -125.32164063 432.99807617 -124.45703125 432.48193359 C-99.4301405 417.44503368 -76.20211307 400.1006111 -55 380 C-54.24589844 379.2884375 -53.49179688 378.576875 -52.71484375 377.84375 C-47.32864784 372.61817623 -42.6318477 366.89651601 -38 361 C-37.24460937 360.03835938 -36.48921875 359.07671875 -35.7109375 358.0859375 C-13.11269004 328.65385575 -1.32769535 296.20337076 -1.4699707 259.12646484 C-1.46284578 257.13357375 -1.4539707 255.14068828 -1.44351196 253.14781189 C-1.42013498 247.78722069 -1.42061105 242.42687524 -1.42542672 237.06624556 C-1.42602936 231.36277356 -1.40316907 225.65939215 -1.38285828 219.95596313 C-1.34754379 209.10710759 -1.33146163 198.25831848 -1.3230831 187.40941203 C-1.30739202 168.23113479 -1.25315635 149.05292093 -1.20261753 129.87470937 C-1.18737274 124.06951822 -1.17306361 118.26432787 -1.160923 112.45912933 C-1.08215108 74.96614148 -0.74369063 37.48586041 0 0 Z " fill="#000000" transform="translate(1312,1218)"/>
<path d="M0 0 C1.11421074 -0.00424107 1.11421074 -0.00424107 2.25093079 -0.00856781 C6.18682194 -0.02348689 10.12267717 -0.03276067 14.05859375 -0.03710938 C18.07112164 -0.04256502 22.08330526 -0.06655221 26.09572601 -0.09508133 C29.22750731 -0.1139453 32.35920984 -0.11892586 35.49104309 -0.12044525 C36.96745167 -0.12342214 38.44386061 -0.13127625 39.92021179 -0.14463043 C47.89182019 -0.2115577 55.59201366 0.17420669 63.46289062 1.50878906 C64.14451012 1.6215556 64.82612961 1.73432213 65.52840424 1.85050583 C75.21811293 3.66485543 86.3365809 8.50378752 92.171875 16.67578125 C92.66171875 17.53042969 93.1515625 18.38507813 93.65625 19.265625 C94.15640625 20.12285156 94.6565625 20.98007813 95.171875 21.86328125 C97.6278518 26.51875625 97.56052312 30.72637767 97.56738281 35.86206055 C97.57234772 36.74697678 97.57731262 37.63189301 97.58242798 38.54362488 C97.59705032 41.47570572 97.60385272 44.40773241 97.609375 47.33984375 C97.61512762 49.37905377 97.62088534 51.41826377 97.62664795 53.45747375 C97.63715899 57.73719535 97.64300058 62.01689817 97.64648438 66.29663086 C97.65196081 71.76972292 97.6759703 77.24256517 97.70445633 82.71557903 C97.72312117 86.93045262 97.72829042 91.14526658 97.72982025 95.36017799 C97.73284003 97.37711766 97.74084568 99.39405644 97.75400543 101.41095543 C97.77114172 104.23989969 97.76916686 107.06824108 97.76269531 109.8972168 C97.7719101 110.7240094 97.78112488 111.550802 97.7906189 112.40264893 C97.72963344 120.95246799 95.08314137 127.21350592 89.25 133.50390625 C86.38851654 136.14107851 83.38331355 138.203125 79.40625 138.203125 C80.55664081 139.35351581 81.70736734 140.50357207 82.859375 141.65234375 C83.91665298 142.71229162 84.96850995 143.77766733 86.015625 144.84765625 C89.61266153 148.50244337 93.32815546 151.94381931 97.20703125 155.296875 C99.79170435 157.53723108 102.352926 159.80210135 104.90625 162.078125 C105.7621875 162.83867188 106.618125 163.59921875 107.5 164.3828125 C108.1290625 164.98351563 108.758125 165.58421875 109.40625 166.203125 C109.40625 166.533125 109.40625 166.863125 109.40625 167.203125 C104.49946937 167.47816013 99.59730094 167.67600384 94.68457031 167.80737305 C93.01971203 167.86219312 91.35537085 167.93689061 89.69238281 168.03295898 C74.40960976 168.89272991 74.40960976 168.89272991 68.05352783 163.41426086 C65.70835475 161.12062723 63.55493988 158.68005059 61.40625 156.203125 C59.92858726 154.84507838 58.43346276 153.50519987 56.90625 152.203125 C56.02453125 151.4296875 56.02453125 151.4296875 55.125 150.640625 C54.5578125 150.16625 53.990625 149.691875 53.40625 149.203125 C52.84589554 148.68419174 52.28554108 148.16525848 51.70820618 147.63059998 C48.61256798 145.71095176 46.485179 145.86802301 42.85620117 145.92602539 C42.20671509 145.93201248 41.557229 145.93799957 40.88806152 145.94416809 C39.47971976 145.95890697 38.07143673 145.98050835 36.66329002 146.00819588 C34.41984116 146.0513463 32.1769659 146.07451266 29.93318176 146.09239197 C23.55441408 146.14722193 17.17630769 146.24092192 10.7980957 146.34008789 C6.89019019 146.39946418 2.98246451 146.43818313 -0.92578697 146.46581841 C-3.11003298 146.48762485 -5.29291891 146.53310783 -7.47676086 146.57936096 C-22.5889892 146.76629636 -38.87830074 143.37782854 -50.53125 133.078125 C-59.71837745 122.34657298 -59.33844177 110.01648716 -59.2578125 96.6953125 C-59.26118787 94.71859439 -59.26604647 92.74187831 -59.27230835 90.76516724 C-59.27964222 86.64158177 -59.26908495 82.5185412 -59.24560547 78.39501953 C-59.2170823 73.13168034 -59.23356651 67.86961423 -59.26346779 62.60632133 C-59.28160331 58.53112326 -59.27575476 54.45622321 -59.26282883 50.38101578 C-59.25951403 48.44110078 -59.2635134 46.50115795 -59.27522659 44.56127548 C-59.33079298 32.77795624 -59.09844516 23.93108576 -51.34375 14.453125 C-35.86736472 1.79062795 -19.40700493 0.0503184 0 0 Z " fill="#F37901" transform="translate(858.59375,1219.796875)"/>
<path d="M0 0 C6.80400253 5.6616331 10.27560987 12.28249146 13.6640625 20.296875 C14.22308258 21.5985537 14.22308258 21.5985537 14.793396 22.92652893 C16.01103392 25.76508876 17.22034313 28.60711689 18.4296875 31.44921875 C19.27867819 33.43239388 20.12829501 35.41530107 20.97851562 37.39794922 C22.71134646 41.43991214 24.44149954 45.48300559 26.16992188 49.52685547 C29.4815996 57.26789422 32.832889 64.99165602 36.18395996 72.71569824 C42.77019084 87.9027053 49.26923156 103.1246158 55.6796875 118.38671875 C61.75870799 106.80661281 66.97290573 94.85475337 72.24647522 82.89259338 C75.70802297 75.04557913 79.22559031 67.22368275 82.73925781 59.39990234 C83.27776367 58.20059082 83.81626953 57.0012793 84.37109375 55.765625 C84.77616653 54.8635733 84.77616653 54.8635733 85.18942261 53.94329834 C86.89135543 50.15083069 88.58579471 46.35510171 90.27485657 42.55688477 C91.42377738 39.97372294 92.57500837 37.39159336 93.72634888 34.80950928 C94.52085951 33.02518996 95.31213787 31.23943247 96.10327148 29.45361328 C98.74849027 23.52513299 101.46654262 17.63540955 104.3125 11.80078125 C104.8605127 10.67236816 105.40852539 9.54395508 105.97314453 8.38134766 C109.80760042 1.65267299 115.45057929 -2.20357851 122.6796875 -4.61328125 C134.43150157 -7.48594691 147.97715395 -5.2698783 158.4296875 0.82421875 C162.15507152 3.46673626 164.1552991 6.21689473 165.23857784 10.69930553 C165.69515828 13.48097284 165.8026859 16.06735977 165.79994202 18.8853302 C165.80200401 20.52377899 165.80200401 20.52377899 165.80410767 22.19532776 C165.80051239 23.38359665 165.79691711 24.57186554 165.79321289 25.79614258 C165.79335892 27.05508331 165.79350494 28.31402405 165.7936554 29.6111145 C165.79394186 33.05493781 165.78806951 36.49872616 165.78108144 39.94254136 C165.77482279 43.54467481 165.77424211 47.1468091 165.77305603 50.74894714 C165.76995012 57.56636205 165.7617467 64.38376088 165.75170654 71.20116872 C165.74052242 78.96413353 165.73502916 86.72709912 165.73001111 94.49006999 C165.71956348 110.45563046 165.70122719 126.4211688 165.6796875 142.38671875 C155.4496875 142.38671875 145.2196875 142.38671875 134.6796875 142.38671875 C134.3496875 102.12671875 134.0196875 61.86671875 133.6796875 20.38671875 C129.3896875 29.95671875 125.0996875 39.52671875 120.6796875 49.38671875 C117.03638543 57.491588 113.39120088 65.59558112 109.73974609 73.69677734 C106.12076054 81.72804471 102.50831403 89.76199833 98.92320251 97.80845642 C97.28188377 101.49131287 95.63661148 105.17239699 93.99105835 108.85336304 C93.20703848 110.61015242 92.42495894 112.36780916 91.64492798 114.12637329 C90.55989011 116.57216284 89.46815361 119.01486056 88.375 121.45703125 C88.05908401 122.17397659 87.74316803 122.89092194 87.41767883 123.6295929 C84.91411991 129.19486665 82.10680313 134.52147535 77.4296875 138.57421875 C76.90890625 139.04214844 76.388125 139.51007813 75.8515625 139.9921875 C69.83251726 143.85693417 63.86518912 144.92105194 56.8046875 144.82421875 C56.01602295 144.81519531 55.2273584 144.80617188 54.41479492 144.796875 C47.38870813 144.58858751 41.23422604 143.68659505 35.90087891 138.73535156 C31.46228731 133.73372236 28.49664529 128.70837303 25.7421875 122.63671875 C25.28602051 121.65848145 24.82985352 120.68024414 24.35986328 119.67236328 C19.45024627 109.06480633 14.74661865 98.36057867 10.02587891 87.66796875 C4.3219216 74.75872793 -1.54397186 61.92780084 -7.47314453 49.12060547 C-7.81160904 48.38814606 -8.15007355 47.65568665 -8.49879456 46.90103149 C-9.11230112 45.57381277 -9.7271063 44.24719266 -10.34385681 42.92147827 C-13.79262669 35.46085931 -17.0235265 27.9222296 -20.3203125 20.38671875 C-20.6503125 60.64671875 -20.9803125 100.90671875 -21.3203125 142.38671875 C-31.5503125 142.38671875 -41.7803125 142.38671875 -52.3203125 142.38671875 C-52.43336644 125.60951358 -52.52539313 108.83263565 -52.57937336 92.0551548 C-52.60510826 84.26433254 -52.64016783 76.47376451 -52.69750977 68.68310547 C-52.74749002 61.88936446 -52.77963776 55.09580764 -52.79075497 48.30188787 C-52.79724923 44.70752291 -52.81241209 41.1136847 -52.84896278 37.51948929 C-52.8895241 33.49794831 -52.89025263 29.47731152 -52.88793945 25.45556641 C-52.90591583 24.27592316 -52.92389221 23.09627991 -52.94241333 21.88088989 C-52.89637768 14.46257317 -51.7706556 8.48458827 -47.3203125 2.38671875 C-34.7640643 -7.84214542 -13.30190383 -9.24863011 0 0 Z " fill="#204A87" transform="translate(274.3203125,1222.61328125)"/>
<path d="M0 0 C1.29892361 0.6048348 2.5945063 1.21689416 3.88671875 1.8359375 C4.54333496 2.1462793 5.19995117 2.45662109 5.87646484 2.77636719 C12.46337497 5.94622681 18.33346082 9.14450812 23.63671875 14.2734375 C28.87649683 18.74980421 33.78000476 18.48652777 40.35864258 18.5456543 C49.37539002 18.67681659 57.39780091 20.93629965 65.88671875 23.8359375 C66.94117188 24.19558594 67.995625 24.55523438 69.08203125 24.92578125 C90.17043722 32.99913558 109.18454025 47.92458339 125.88671875 62.8359375 C126.4369873 63.32449219 126.98725586 63.81304688 127.55419922 64.31640625 C152.38648087 86.46546343 170.34742984 113.00579846 183.47192383 143.39941406 C189.2854009 156.86150522 195.30453358 170.19820363 201.68417358 183.40328979 C202.52257777 185.13978336 203.35744256 186.87799057 204.18862915 188.61795044 C205.35951563 191.06462507 206.54461501 193.50386392 207.734375 195.94140625 C208.07974304 196.66711823 208.42511108 197.3928302 208.78094482 198.14053345 C211.93973679 204.53011939 215.58260413 208.66896858 222.31640625 211.4140625 C223.3513623 211.84759033 224.38631836 212.28111816 225.45263672 212.7277832 C226.54463379 213.17597412 227.63663086 213.62416504 228.76171875 214.0859375 C254.41311295 225.0372084 284.2617307 242.93042583 299.88671875 266.8359375 C299.88671875 268.1559375 299.88671875 269.4759375 299.88671875 270.8359375 C290.26889413 274.01930199 280.67880675 275.84879053 270.6796875 277.35253906 C263.92420226 278.39304421 257.44198348 279.89950185 250.88671875 281.8359375 C250.57186166 284.81041189 250.57186166 284.81041189 252.2578125 286.52734375 C257.18822842 290.99174682 262.30722657 294.34522834 268.07421875 297.5859375 C280.02871401 304.3536735 289.70582122 313.02495819 298.703125 323.36328125 C300.9999779 325.96418981 303.41941254 328.39722589 305.88671875 330.8359375 C309.46484825 334.72076382 310.70104444 337.79682168 311.88671875 342.8359375 C308.68710852 341.39141821 306.25328844 339.59394442 303.57421875 337.3359375 C293.40076909 329.15294538 283.17493854 322.7957437 271.32421875 317.3359375 C261.9986624 313.03113523 253.8612406 308.2956248 245.88671875 301.8359375 C244.60087891 300.82080078 244.60087891 300.82080078 243.2890625 299.78515625 C236.31795177 293.97783696 230.14467746 286.38807912 226.88671875 277.8359375 C226.82421875 275.6484375 226.82421875 275.6484375 227.88671875 273.8359375 C244.71125704 264.41014195 264.09178559 263.54800875 282.88671875 262.8359375 C278.84178795 259.26126138 274.80495944 255.96054662 270.26171875 253.0234375 C265.94906752 250.20734061 261.71433392 247.3136441 257.51171875 244.3359375 C255.31325386 242.82057859 253.10163334 241.32745362 250.88671875 239.8359375 C249.92507813 239.17722656 248.9634375 238.51851562 247.97265625 237.83984375 C238.64195948 231.96977249 228.4427958 228.69087637 218.015625 225.33618164 C216.79746094 224.93906982 215.57929687 224.54195801 214.32421875 224.1328125 C212.68259766 223.61219238 212.68259766 223.61219238 211.0078125 223.08105469 C193.40263437 216.05771235 185.79834017 188.61942939 178.484375 172.53125 C176.44725674 168.05179212 174.36805502 163.59569042 172.26171875 159.1484375 C169.92802393 154.19211421 167.76548219 149.1897776 165.65698242 144.13378906 C156.78943653 122.95451296 145.07060306 105.00491934 129.88671875 87.8359375 C129.41556641 87.30162109 128.94441406 86.76730469 128.45898438 86.21679688 C109.88524443 65.2611585 86.62356035 48.8300106 60.88671875 37.8359375 C60.13261719 37.49949219 59.37851562 37.16304687 58.6015625 36.81640625 C51.57071042 33.88568146 43.96236831 32.86549761 36.39453125 32.703125 C21.70659908 32.37595233 21.70659908 32.37595233 14.88671875 25.8359375 C5.9771444 19.29511791 -3.98478375 15.08863699 -14.11328125 10.8359375 C-15.04269531 10.43375 -15.97210937 10.0315625 -16.9296875 9.6171875 C-21.22616996 8.07998447 -25.80706188 8.4579473 -30.11328125 9.8359375 C-31.12317286 18.58833145 -27.3659359 25.41041786 -22.25 32.37109375 C-20.92991735 33.99804933 -19.59744927 35.61501985 -18.25390625 37.22265625 C-6.99563151 50.96679093 -0.07389309 65.8189046 5.19824219 82.65405273 C9.80324475 97.24799171 14.8346192 113.01319306 26.50390625 123.53125 C28.99043577 125.87729763 29.09805967 127.92060548 29.19921875 131.2109375 C29.13315494 138.81928619 26.33846528 145.597426 23.26171875 152.4609375 C19.4642979 161.78187959 19.48326643 171.53567456 19.51171875 181.4609375 C19.51226257 182.17247986 19.5128064 182.88402222 19.5133667 183.61712646 C19.55062833 194.20330416 20.10701054 203.83837596 23.88671875 213.8359375 C24.11166016 214.4664502 24.33660156 215.09696289 24.56835938 215.74658203 C27.075734 222.70748225 29.31494483 228.89287315 35.88671875 232.8359375 C36.87671875 233.1659375 37.86671875 233.4959375 38.88671875 233.8359375 C38.96019531 232.54623047 38.96019531 232.54623047 39.03515625 231.23046875 C40.32273537 210.87339886 43.12954701 196.23086778 56.88671875 180.8359375 C59.32899724 183.02081794 60.50771474 184.88133958 61.6484375 187.94140625 C61.95837646 188.7519043 62.26831543 189.56240234 62.58764648 190.39746094 C62.91321533 191.2640332 63.23878418 192.13060547 63.57421875 193.0234375 C67.16474876 202.26691258 71.20812617 211.09684567 75.88671875 219.8359375 C76.23847168 220.4954541 76.59022461 221.1549707 76.95263672 221.83447266 C86.78710216 240.12878836 99.25611249 263.08219999 116.88671875 274.8359375 C116.55671875 275.4959375 116.22671875 276.1559375 115.88671875 276.8359375 C111.60237409 273.82778061 107.65856255 270.72686191 104.01171875 266.9609375 C100.38625415 263.22905026 96.49014198 260.04598764 92.40234375 256.8359375 C79.56563585 246.63035606 69.84994628 235.04540257 62.44921875 220.3984375 C62.09480713 219.69976563 61.74039551 219.00109375 61.37524414 218.28125 C59.90717517 215.29342204 58.88671875 213.20818613 58.88671875 209.8359375 C58.22671875 209.8359375 57.56671875 209.8359375 56.88671875 209.8359375 C56.84933594 210.42117188 56.81195312 211.00640625 56.7734375 211.609375 C56.29788572 217.81952177 55.53954702 223.9875927 54.63671875 230.1484375 C54.53963623 230.91269043 54.44255371 231.67694336 54.3425293 232.46435547 C53.48419251 238.00150482 51.85591934 240.86072297 47.88671875 244.8359375 C43.38052541 247.84006639 39.16241998 247.63923357 33.88671875 246.8359375 C22.2188649 241.51766096 16.42811829 228.02767145 11.88671875 216.8359375 C8.3734897 206.33457649 7.51963587 195.65282093 7.57421875 184.6484375 C7.58159058 182.87351929 7.58159058 182.87351929 7.58911133 181.06274414 C7.78214518 166.55352806 10.73942047 153.52761932 14.80078125 139.6640625 C15.15914062 138.40078125 15.5175 137.1375 15.88671875 135.8359375 C16.31210937 134.4746875 16.31210937 134.4746875 16.74609375 133.0859375 C17.1155827 130.74104805 17.1155827 130.74104805 15.55078125 128.7578125 C14.87789062 128.04109375 14.205 127.324375 13.51171875 126.5859375 C3.10761661 114.26052033 -2.08270888 99.23741008 -7.26538086 84.18188477 C-8.02461981 82.08124352 -8.85837467 80.05172094 -9.765625 78.01171875 C-10.96862824 75.17681545 -11.68213597 72.64863451 -12.30078125 69.6484375 C-14.57319876 61.14705828 -19.92818228 54.59480961 -25.28125 47.7890625 C-43.54753212 24.55598167 -43.54753212 24.55598167 -42.59375 12.30078125 C-41.34027826 5.87036932 -38.39177282 0.63867158 -32.88671875 -3.0859375 C-22.23855228 -7.22522475 -10.0803531 -4.42005999 0 0 Z " fill="#224C88" transform="translate(859.11328125,921.1640625)"/>
<path d="M0 0 C10.56 0 21.12 0 32 0 C32.02578125 5.21167969 32.0515625 10.42335938 32.078125 15.79296875 C32.10329521 19.09705426 32.12962924 22.40104838 32.16015625 25.70507812 C32.20848646 30.94800145 32.25253267 36.19071323 32.27099609 41.43383789 C32.28615382 45.66160117 32.32058307 49.88881061 32.36830902 54.11632729 C32.38313205 55.72818497 32.39104155 57.34012173 32.39188385 58.95204735 C32.39425262 61.21236401 32.4213215 63.47114897 32.45410156 65.73120117 C32.46298401 67.01693527 32.47186646 68.30266937 32.48101807 69.62736511 C33.09595617 73.62357685 34.09001375 75.22754605 37 78 C41.04566724 80.30087529 45.08848278 80.30480413 49.63598633 80.31884766 C50.3998273 80.32900091 51.16366827 80.33915417 51.95065594 80.3496151 C54.41110988 80.38013042 56.87144882 80.39737255 59.33203125 80.4140625 C60.85592636 80.43100651 62.37981201 80.44882419 63.90368652 80.4675293 C69.5398492 80.53060115 75.17619065 80.57678442 80.8125 80.625 C93.414375 80.74875 106.01625 80.8725 119 81 C119 54.27 119 27.54 119 0 C129.23 0 139.46 0 150 0 C150.0904429 15.09944259 150.16406475 30.19876226 150.20724869 45.29840755 C150.22783653 52.3101213 150.25588423 59.32165427 150.30175781 66.33325195 C150.34602425 73.10245534 150.36915198 79.87147096 150.37950897 86.64081001 C150.38688793 89.22073888 150.40129726 91.80065771 150.42292023 94.38050652 C150.45204404 97.9999074 150.45595207 101.61853751 150.45410156 105.23803711 C150.46848267 106.29971603 150.48286377 107.36139496 150.49768066 108.45524597 C150.44464601 118.06967134 147.54379754 125.19793653 140.96875 132.21875 C129.8093907 142.31531318 112.60764901 145.33403081 98.06420898 145.22705078 C96.48215919 145.22748886 96.48215919 145.22748886 94.8681488 145.22793579 C91.41071101 145.22655166 87.95349352 145.2110337 84.49609375 145.1953125 C82.08757139 145.19157911 79.6790475 145.18873368 77.27052307 145.18673706 C70.95274613 145.17912628 64.63506216 145.15949977 58.31732178 145.1373291 C51.86195127 145.11681555 45.40656563 145.10772358 38.95117188 145.09765625 C26.30073398 145.07625142 13.65038929 145.04109014 1 145 C1 138.07 1 131.14 1 124 C4.07304443 123.98541748 7.14608887 123.97083496 10.31225586 123.95581055 C20.48236694 123.90540191 30.65232593 123.83879559 40.82228756 123.76428509 C46.98641075 123.71961839 53.1504684 123.68035389 59.31469727 123.65356445 C65.26705403 123.62749489 71.21915811 123.58706609 77.17135811 123.53681374 C79.43862317 123.52016982 81.70593191 123.50864018 83.97324944 123.50238609 C87.15683151 123.4927183 90.33977074 123.46462605 93.52319336 123.43237305 C94.45396194 123.43380814 95.38473053 123.43524323 96.34370422 123.4367218 C102.41167926 123.35017052 107.36061553 122.20020036 113 120 C113.99 119.67 114.98 119.34 116 119 C117.23759823 115.28720531 117.35608897 111.68693654 117.5625 107.8125 C117.62727539 106.68811523 117.62727539 106.68811523 117.69335938 105.54101562 C117.79922685 103.69421625 117.9000976 101.84713166 118 100 C116.58750977 100.01332367 116.58750977 100.01332367 115.14648438 100.0269165 C106.20412174 100.10855594 97.26183625 100.16822803 88.31918335 100.20724869 C83.72337116 100.2279851 79.12786354 100.25604238 74.53222656 100.30175781 C70.08419876 100.34572009 65.63646098 100.36924147 61.18823242 100.37950897 C59.50442957 100.38681116 57.82063975 100.40106576 56.13696289 100.42292023 C38.88098704 100.63767796 22.23242397 98.01427701 8.0625 87.25 C1.94035707 81.23316837 -0.41154023 74.59294455 -0.56762695 66.07177734 C-0.58521366 62.99191973 -0.54002856 59.91529463 -0.48828125 56.8359375 C-0.47893832 55.1911426 -0.47182921 53.54633365 -0.46684265 51.90151978 C-0.44788893 47.60386722 -0.39889147 43.30707986 -0.34332275 39.00976562 C-0.28280782 33.83687719 -0.26015847 28.66369702 -0.23105621 23.49055481 C-0.18281662 15.65977092 -0.08692392 7.8308797 0 0 Z " fill="#214A87" transform="translate(466,1264)"/>
<path d="M0 0 C0.98642487 -0.00014603 1.97284973 -0.00029205 2.98916626 -0.0004425 C6.21928173 0.00024896 9.44933808 0.00800518 12.67944336 0.01586914 C14.93102487 0.01773605 17.18260678 0.01915866 19.43418884 0.02015686 C25.33764788 0.02396057 31.241082 0.03377239 37.14453125 0.04486084 C43.17764957 0.05512125 49.21077194 0.05966437 55.24389648 0.06469727 C67.06487269 0.07539671 78.88582392 0.09297599 90.70678711 0.11352539 C90.70678711 7.04352539 90.70678711 13.97352539 90.70678711 21.11352539 C87.77473389 21.12810791 84.84268066 21.14269043 81.82177734 21.15771484 C72.12662318 21.20808608 62.4316292 21.27468581 52.73663235 21.3492403 C46.85942904 21.39393866 40.98229498 21.43319619 35.10498047 21.45996094 C29.43143127 21.48599891 23.75814858 21.52640538 18.08476448 21.57671165 C15.9219094 21.59337692 13.75900822 21.6048933 11.59609795 21.6111393 C8.56296831 21.62078385 5.53051999 21.64884825 2.49755859 21.68115234 C1.16075043 21.67899971 1.16075043 21.67899971 -0.20306396 21.67680359 C-6.34033613 21.7690466 -11.61439928 22.50283752 -16.20361328 26.9753418 C-18.35040052 31.1881051 -17.76238287 35.85895011 -17.73071289 40.48852539 C-17.75069336 41.51719727 -17.77067383 42.54586914 -17.79125977 43.60571289 C-17.78837154 48.08823707 -17.58151753 51.42928238 -15.82836914 55.59008789 C-9.8994525 61.49159814 -3.11863565 62.56882779 5.00804138 62.6678772 C6.15515091 62.66283173 7.30226044 62.65778625 8.48413086 62.65258789 C9.69065811 62.6643808 10.89718536 62.67617371 12.14027405 62.68832397 C15.97507759 62.72344352 19.80933626 62.73273715 23.64428711 62.73852539 C27.47550292 62.75493213 31.30647901 62.77711707 35.1375885 62.81015015 C37.5138585 62.82959244 39.89023767 62.8391357 42.2665863 62.83706665 C56.67539807 62.92894288 71.85284975 65.95403426 82.70678711 76.11352539 C89.87661528 83.52234784 90.07960229 89.67227445 90.07739258 99.59277344 C90.08173916 101.77693238 90.11800101 103.95902412 90.15600586 106.14282227 C90.24046548 116.35410774 89.0173062 124.44164984 81.70678711 132.11352539 C69.05117723 142.2380133 54.48345254 145.29027251 38.71069336 145.22705078 C37.26053581 145.22726982 37.26053581 145.22726982 35.78108215 145.22749329 C32.61046036 145.22680097 29.43989855 145.21904066 26.26928711 145.21118164 C24.06111686 145.20931504 21.8529462 145.20789228 19.64477539 145.20689392 C13.85144901 145.20308782 8.05814796 145.1932739 2.26483154 145.18218994 C-3.6542527 145.17193473 -9.57334106 145.16738751 -15.49243164 145.16235352 C-27.09270494 145.15164984 -38.69295284 145.13406857 -50.29321289 145.11352539 C-50.29321289 138.18352539 -50.29321289 131.25352539 -50.29321289 124.11352539 C-46.05501709 124.10736206 -46.05501709 124.10736206 -41.73120117 124.10107422 C-32.37130412 124.08383786 -23.01167872 124.03927115 -13.65194893 123.98143482 C-7.97990814 123.94721807 -2.30813519 123.92206306 3.36401367 123.91796875 C8.84318123 123.91367449 14.32174513 123.88511768 19.80072403 123.84009361 C21.88573814 123.82715472 23.97082463 123.82279806 26.05587387 123.8273716 C41.35232986 124.4522486 41.35232986 124.4522486 54.70678711 118.11352539 C57.63915589 113.26207403 57.07495304 108.1945352 57.08178711 102.67602539 C57.11852539 101.12044922 57.11852539 101.12044922 57.15600586 99.53344727 C57.20690858 93.44555174 57.20690858 93.44555174 54.79663086 87.96899414 C48.05857907 81.98661171 39.05423008 82.98148146 30.53491211 82.97290039 C28.32005825 82.95455131 26.10521425 82.93497911 23.89038086 82.91430664 C20.441808 82.88557259 16.99386564 82.8635307 13.54516602 82.86303711 C-7.24881707 82.84201792 -29.25084748 81.68328489 -44.85571289 66.11743164 C-50.01804781 58.92102454 -49.82033556 51.49687313 -49.79418945 42.98071289 C-49.79321799 40.75022824 -49.83488507 38.52320151 -49.87915039 36.29321289 C-49.95980219 26.75737097 -48.62494907 20.34085259 -42.44165039 12.87915039 C-37.19885338 8.39852211 -31.69373231 5.63224831 -25.29321289 3.11352539 C-24.26196289 2.70102539 -23.23071289 2.28852539 -22.16821289 1.86352539 C-14.91347762 -0.02901424 -7.4533476 -0.02938034 0 0 Z " fill="#F37901" transform="translate(690.293212890625,1219.886474609375)"/>
<path d="M0 0 C1.87213417 -0.00218285 1.87213417 -0.00218285 3.78208923 -0.00440979 C7.07132515 -0.00233969 10.35977305 0.01854036 13.64886475 0.04656982 C15.65254693 0.05859497 17.65572264 0.05695288 19.65942383 0.05004883 C23.5440119 0.03739234 27.42793537 0.0461727 31.3125 0.0625 C32.49505875 0.05956436 33.67761749 0.05662872 34.89601135 0.05360413 C43.10085956 0.14611695 51.40115957 0.69833236 58.08984375 5.93359375 C62.48299828 10.43657714 62.88819044 13.9371118 62.88037109 20.09106445 C62.88708832 20.85093658 62.89380554 21.61080872 62.90072632 22.39370728 C62.91970727 24.90316325 62.92363074 27.41235172 62.92578125 29.921875 C62.93220984 31.67058929 62.93893825 33.41930249 62.94595337 35.16801453 C62.95792689 38.83395886 62.96163419 42.49980897 62.96044922 46.16577148 C62.96024619 50.85325136 62.98753091 55.54012384 63.02199364 60.22745991 C63.04428166 63.84011078 63.04828616 67.45261602 63.04722977 71.0653286 C63.04958353 72.79282916 63.0583944 74.52033387 63.0738945 76.24776649 C63.09359065 78.66991731 63.0877028 81.09076563 63.07568359 83.51293945 C63.08692261 84.22019669 63.09816162 84.92745392 63.10974121 85.65614319 C63.03212336 91.8419037 60.96236286 96.12357464 56.58984375 100.49609375 C52.59013104 100.21025373 50.56836442 98.98221798 47.7421875 96.22265625 C47.05447266 95.56265625 46.36675781 94.90265625 45.65820312 94.22265625 C44.60342773 93.18238281 44.60342773 93.18238281 43.52734375 92.12109375 C42.12140537 90.75744886 40.71390357 89.39541364 39.3046875 88.03515625 C38.687146 87.42881348 38.06960449 86.8224707 37.43334961 86.19775391 C36.82499268 85.63620605 36.21663574 85.0746582 35.58984375 84.49609375 C35.01919189 83.93414307 34.44854004 83.37219238 33.8605957 82.79321289 C30.52230111 80.88628254 27.27864435 81.12547729 23.54296875 81.203125 C22.77176697 81.20736984 22.00056519 81.21161469 21.20599365 81.21598816 C18.7502506 81.23273992 16.29533746 81.27038436 13.83984375 81.30859375 C12.17188688 81.32364518 10.5039171 81.33733278 8.8359375 81.34960938 C4.75358797 81.38263181 0.67185643 81.43438891 -3.41015625 81.49609375 C-0.91233052 83.85257599 1.5885119 86.20583391 4.08984375 88.55859375 C4.7859375 89.21537109 5.48203125 89.87214844 6.19921875 90.54882812 C10.42667797 94.52185693 14.71978588 98.38665802 19.13867188 102.14624023 C19.61755859 102.59169189 20.09644531 103.03714355 20.58984375 103.49609375 C20.58984375 103.82609375 20.58984375 104.15609375 20.58984375 104.49609375 C15.91255089 104.57085989 11.23561424 104.62498329 6.55786133 104.66088867 C4.97023449 104.67587388 3.38264832 104.69626921 1.79516602 104.72241211 C-16.81887321 105.02103306 -16.81887321 105.02103306 -25.28515625 99.68359375 C-29.93525618 94.89672617 -30.85824123 90.05218009 -30.84594727 83.58227539 C-30.8560231 82.81235764 -30.86609894 82.04243988 -30.8764801 81.24919128 C-30.90484858 78.71806097 -30.91083052 76.18752913 -30.9140625 73.65625 C-30.92370998 71.88797261 -30.93380293 70.1196976 -30.94432068 68.35142517 C-30.96225322 64.65032399 -30.96784454 60.94943256 -30.96606445 57.24829102 C-30.96575945 52.51572266 -31.00674382 47.78450326 -31.05838108 43.05225468 C-31.09180373 39.40182873 -31.09782029 35.75172713 -31.09623528 32.10116386 C-31.09976517 30.35689066 -31.11297762 28.61260815 -31.13623238 26.8684864 C-31.32124958 11.56183874 -31.32124958 11.56183874 -28.05444336 7.12280273 C-20.12457339 0.23914262 -9.9809228 -0.09497856 0 0 Z " fill="#7992AB" transform="translate(864.41015625,1240.50390625)"/>
<path d="M0 0 C10.23 0 20.46 0 31 0 C31.01458252 3.32586182 31.02916504 6.65172363 31.04418945 10.07836914 C31.094541 21.07071406 31.16113728 32.06291741 31.23571491 43.05512333 C31.28042992 49.71927956 31.31968377 56.383353 31.34643555 63.04760742 C31.37245686 69.47975101 31.41285169 75.91165887 31.46318626 82.34365654 C31.47986277 84.79678857 31.49137215 87.24996139 31.49761391 89.70314217 C31.5072461 93.14096884 31.53529639 96.57819132 31.56762695 100.01586914 C31.56547432 101.53501671 31.56547432 101.53501671 31.5632782 103.08485413 C31.63940909 108.8143003 32.18898468 112.96205655 35 118 C41.31179324 123.21409007 47.30072722 123.15258219 55.10473633 123.20532227 C56.46645462 123.22017166 56.46645462 123.22017166 57.85568237 123.23532104 C60.84777239 123.26683635 63.83987828 123.29165401 66.83203125 123.31640625 C68.90997219 123.33698439 70.98790902 123.35798108 73.06584167 123.37937927 C78.52872386 123.43451114 83.99164327 123.48395956 89.45458984 123.53222656 C95.03160913 123.58250651 100.60857451 123.63815866 106.18554688 123.69335938 C117.12365354 123.80083228 128.06180611 123.90180474 139 124 C139 130.93 139 137.86 139 145 C127.09882812 145.04534045 115.19771442 145.08196755 103.29647541 145.10362434 C97.7691506 145.11402302 92.2418884 145.12811007 86.71459961 145.15087891 C81.37183715 145.17274771 76.02913459 145.18459801 70.6863308 145.18975449 C68.65678147 145.19342519 66.62723511 145.20059253 64.59771156 145.21146011 C45.04909566 145.31189255 23.83568906 144.89331371 8.19140625 131.4453125 C0.74280548 123.68093563 -0.5972481 113.50458918 -0.45410156 103.19458008 C-0.45468567 102.07131317 -0.45526978 100.94804626 -0.45587158 99.79074097 C-0.4531082 96.11667844 -0.42209794 92.44345021 -0.390625 88.76953125 C-0.38315643 86.20692894 -0.37746641 83.64432089 -0.37347412 81.08171082 C-0.35981671 75.05057359 -0.32836476 69.01978872 -0.28807616 62.98879212 C-0.24317101 56.11567452 -0.22132462 49.24254192 -0.20129442 42.36931384 C-0.15962549 28.24601696 -0.08634929 14.12309076 0 0 Z " fill="#F47900" transform="translate(976,1220)"/>
<path d="M0 0 C60.62793821 -0.4341898 121.31016786 4.18566497 181.27331543 13.02285767 C182.08276611 13.14060547 182.8922168 13.25835327 183.72619629 13.37966919 C218.22295667 18.39824091 252.50815015 25.34849348 286.27331543 34.02285767 C287.26831055 34.27712524 288.26330566 34.53139282 289.28845215 34.79336548 C302.98389725 38.3200341 316.55158271 42.23993978 330.08581543 46.33535767 C330.80994629 46.55413574 331.53407715 46.77291382 332.28015137 46.99832153 C334.3478417 47.62449793 336.41433968 48.25443304 338.48034668 48.88613892 C339.67119873 49.25005737 340.86205078 49.61397583 342.08898926 49.98892212 C344.87535319 50.89364122 347.57106848 51.89472281 350.27331543 53.02285767 C350.27331543 53.35285767 350.27331543 53.68285767 350.27331543 54.02285767 C345.31817097 53.41197125 340.72104677 52.40954065 335.91003418 51.01895142 C334.47134142 50.60784274 333.03253413 50.1971347 331.59362793 49.78677368 C330.8411377 49.57078522 330.08864746 49.35479675 329.31335449 49.13226318 C295.39154424 39.44390058 261.16539396 32.57736184 226.47253418 26.34317017 C225.33511276 26.13829483 224.19769135 25.93341949 223.02580261 25.72233582 C216.43587755 24.54789403 209.83768085 23.46881965 203.21836853 22.4730072 C200.30211216 22.02725923 197.39327889 21.5485837 194.48425293 21.05801392 C183.92347786 19.28773896 173.36909569 17.71165652 162.72253418 16.55410767 C161.56625015 16.42734146 160.40996613 16.30057526 159.21864319 16.16996765 C147.27137056 14.88164128 135.30920517 13.78699466 123.33605957 12.77017212 C119.76294481 12.46481266 116.1910373 12.14738805 112.61901855 11.82949829 C77.64121138 8.78949378 42.67663772 7.67792395 7.57531738 7.76211548 C2.77399064 7.77356595 -2.0271155 7.76668372 -6.82843494 7.75522518 C-29.36392871 7.70981254 -51.75126356 8.26075686 -74.2350769 9.79086304 C-78.76020942 10.09152867 -83.28691084 10.3296178 -87.81652832 10.55020142 C-103.99387591 11.37528309 -120.05887169 12.58810382 -136.15002441 14.48965454 C-140.77965976 15.03356017 -145.41241193 15.54848729 -150.04530334 16.06381226 C-154.68682439 16.58083699 -159.32766702 17.10379629 -163.96841431 17.62771606 C-166.27802983 17.88785143 -168.5878205 18.14643726 -170.89779663 18.40335083 C-182.52777281 19.70077599 -194.0475033 21.09576564 -205.5255127 23.39346313 C-209.38099686 24.15150449 -213.19690623 24.65658137 -217.10168457 25.08535767 C-222.33465546 25.68898966 -227.47105911 26.47641598 -232.62121582 27.58926392 C-234.55706816 27.98792738 -236.51754655 28.26163926 -238.47668457 28.52285767 C-241.67487769 28.91153571 -241.67487769 28.91153571 -244.38684082 29.96426392 C-248.36914365 31.2264909 -252.29196908 31.84252429 -256.41418457 32.46035767 C-262.41216293 33.40642245 -268.18063198 34.56981059 -274.01184082 36.28848267 C-277.10464661 37.12509776 -280.19994368 37.69661964 -283.35168457 38.27285767 C-294.65979359 40.48457407 -305.66906204 43.81322929 -316.72668457 47.02285767 C-318.1311336 47.42930708 -319.53559365 47.83571841 -320.94006348 48.24209595 C-325.4125023 49.53753807 -329.88236222 50.84171083 -334.35168457 52.14785767 C-335.05789948 52.35355377 -335.76411438 52.55924988 -336.49172974 52.7711792 C-338.56315277 53.37543852 -340.63351681 53.98313904 -342.70324707 54.59317017 C-343.36751205 54.78863937 -344.03177704 54.98410858 -344.71617126 55.1855011 C-348.16342494 56.21315131 -351.57981325 57.29928297 -354.97961426 58.4750061 C-355.66542572 58.71145844 -356.35123718 58.94791077 -357.05783081 59.19152832 C-358.95116467 59.85121076 -360.83982266 60.52426927 -362.72814941 61.19815063 C-365.72668457 62.02285767 -365.72668457 62.02285767 -368.72668457 61.02285767 C-291.08886606 30.91018109 -208.73206436 14.86615891 -126.11956787 6.27294922 C-123.70989882 6.02110331 -121.3010834 5.76194518 -118.89221191 5.50259399 C-105.98232203 4.1357526 -93.06039662 3.22024639 -80.10168457 2.46035767 C-79.01739166 2.39593475 -77.93309875 2.33151184 -76.81594849 2.26513672 C-59.85408596 1.2718238 -42.90182667 0.64995566 -25.91418457 0.33535767 C-24.90080017 0.31657562 -23.88741577 0.29779358 -22.84332275 0.27844238 C-15.22912664 0.14432455 -7.61506074 0.06383669 0 0 Z " fill="#4377B8" transform="translate(694.7266845703125,285.9771423339844)"/>
<path d="M0 0 C2.31 0 4.62 0 7 0 C8.65 3.96 10.3 7.92 12 12 C13.65 8.04 15.3 4.08 17 0 C19.31 0 21.62 0 24 0 C24 6.93 24 13.86 24 21 C22.68 21 21.36 21 20 21 C19.505 14.565 19.505 14.565 19 8 C17.35 12.29 15.7 16.58 14 21 C12.68 21 11.36 21 10 21 C8.35 16.38 6.7 11.76 5 7 C4.67 11.62 4.34 16.24 4 21 C2.68 21 1.36 21 0 21 C0 14.07 0 7.14 0 0 Z " fill="#EC7808" transform="translate(1145,1344)"/>
<path d="M0 0 C3.98174574 -0.4875607 7.5148156 -0.85106072 11.0859375 1.1953125 C15.10163057 4.56713917 17.67995554 7.5463258 18.375 12.875 C17.90139376 16.82171864 16.44329387 18.90995187 14 22 C13.34 22.33 12.68 22.66 12 23 C11.56429687 22.14277344 11.12859375 21.28554688 10.6796875 20.40234375 C6.73490424 12.7158597 6.73490424 12.7158597 1.5 5.875 C0.675 4.92625 -0.15 3.9775 -1 3 C-0.67 2.01 -0.34 1.02 0 0 Z " fill="#05576E" transform="translate(889,976)"/>
<path d="M0 0 C3.42946293 1.61674681 6.56263052 3.57597677 9.75 5.625 C11.22726563 6.57246094 11.22726563 6.57246094 12.734375 7.5390625 C13.48203125 8.02117188 14.2296875 8.50328125 15 9 C15.33 8.34 15.66 7.68 16 7 C17.98 9.64 19.96 12.28 22 15 C21.34 15 20.68 15 20 15 C20 18.63 20 22.26 20 26 C11.91326888 18.41868958 5.73726305 9.43062613 0 0 Z " fill="#A8C2E1" transform="translate(148,606)"/>
<path d="M0 0 C25.08 0.33 50.16 0.66 76 1 C76 1.33 76 1.66 76 2 C64.12 2 52.24 2 40 2 C40 2.66 40 3.32 40 4 C33.34362157 5.23839599 26.7528064 5.09139136 20 5 C20 4.34 20 3.68 20 3 C18.33710937 2.92652344 18.33710937 2.92652344 16.640625 2.8515625 C15.17705935 2.77650785 13.71351888 2.70096119 12.25 2.625 C11.52039063 2.5940625 10.79078125 2.563125 10.0390625 2.53125 C5.99202856 2.31050269 3.70158006 1.85079003 0 0 Z " fill="#B3BDC5" transform="translate(650,763)"/>
<path d="M0 0 C5.61 0 11.22 0 17 0 C17 1.32 17 2.64 17 4 C14.69 4 12.38 4 10 4 C10 9.61 10 15.22 10 21 C8.68 21 7.36 21 6 21 C6 15.39 6 9.78 6 4 C4.02 4 2.04 4 0 4 C0 2.68 0 1.36 0 0 Z " fill="#EB7809" transform="translate(1124,1344)"/>
<path d="M0 0 C0.495 0.99 0.495 0.99 1 2 C-0.76706299 2.49814209 -0.76706299 2.49814209 -2.56982422 3.00634766 C-7.03295189 4.26575274 -11.49446601 5.53079771 -15.95556641 6.79736328 C-17.86920801 7.33986579 -19.78325712 7.88093337 -21.69775391 8.42041016 C-24.48454782 9.20597884 -27.27003937 9.99592199 -30.0546875 10.7890625 C-30.97102966 11.05003723 -31.88737183 11.31101196 -32.83148193 11.57989502 C-39.7876452 13.58820096 -46.65104187 15.82136324 -53.46188354 18.27871704 C-58.68000222 20.10666593 -58.68000222 20.10666593 -62 19 C-46.71821841 13.2239908 -31.40293722 7.64032203 -15.8125 2.75 C-14.57282471 2.35562744 -13.33314941 1.96125488 -12.0559082 1.55493164 C-10.90952881 1.20164795 -9.76314941 0.84836426 -8.58203125 0.484375 C-7.57374268 0.17209961 -6.5654541 -0.14017578 -5.52661133 -0.46191406 C-3 -1 -3 -1 0 0 Z " fill="#5386C2" transform="translate(388,328)"/>
<path d="M0 0 C2.59326738 1.29663369 2.66867349 2.25525163 3.65625 4.9375 C3.95660156 5.75089844 4.25695313 6.56429688 4.56640625 7.40234375 C5.02853516 8.68818359 5.02853516 8.68818359 5.5 10 C5.80808594 10.82628906 6.11617187 11.65257812 6.43359375 12.50390625 C9.2732173 20.29154337 11.35440325 27.67152372 11 36 C8 34 8 34 7.2265625 30.61328125 C7.0169867 29.18098323 6.81706567 27.747251 6.625 26.3125 C5.48509804 18.82251788 3.54802463 11.99937234 0.98828125 4.87890625 C0 2 0 2 0 0 Z " fill="#3C6BA7" transform="translate(1259,488)"/>
<path d="M0 0 C8.99594623 2.11100714 17.77292048 4.71922177 26.5625 7.5625 C27.81869141 7.96146484 29.07488281 8.36042969 30.36914062 8.77148438 C32.16834961 9.3505957 32.16834961 9.3505957 34.00390625 9.94140625 C35.08486572 10.28888916 36.1658252 10.63637207 37.27954102 10.99438477 C40 12 40 12 43 14 C37.74156184 13.35830689 32.79128775 12.25277608 27.6953125 10.8203125 C26.93072723 10.60688202 26.16614197 10.39345154 25.37838745 10.17355347 C23.77596147 9.72385934 22.17425273 9.27160221 20.57324219 8.81689453 C18.11460522 8.12206234 15.65132246 7.44571146 13.1875 6.76953125 C11.62728589 6.32925132 10.06737818 5.88788384 8.5078125 5.4453125 C7.76935089 5.24519562 7.03088928 5.04507874 6.27005005 4.83889771 C4.21533203 4.24267578 4.21533203 4.24267578 1 3 C0.67 2.01 0.34 1.02 0 0 Z " fill="#3B6DAD" transform="translate(1002,326)"/>
<path d="M0 0 C0.33 0 0.66 0 1 0 C1 7.26 1 14.52 1 22 C-0.98 22 -2.96 22 -5 22 C-5.22786458 20.01432292 -5.45572917 18.02864583 -5.68359375 16.04296875 C-5.97170735 13.80603607 -5.97170735 13.80603607 -7 11 C-6.0625 8.3125 -6.0625 8.3125 -5 6 C-4.67 6 -4.34 6 -4 6 C-4 10.95 -4 15.9 -4 21 C-2.68 21 -1.36 21 0 21 C0 14.07 0 7.14 0 0 Z " fill="#697489" transform="translate(1169,1344)"/>
<path d="M0 0 C0.66 0.33 1.32 0.66 2 1 C2.625 3.5625 2.625 3.5625 3 6 C2.34 6 1.68 6 1 6 C1 9.3 1 12.6 1 16 C-0.65 16 -2.3 16 -4 16 C-2.68 15.67 -1.36 15.34 0 15 C0 10.05 0 5.1 0 0 Z " fill="#807673" transform="translate(1149,1350)"/>
</svg>
