<?xml version="1.0" encoding="UTF-8"?>
<svg version="1.1" xmlns="http://www.w3.org/2000/svg" width="512" height="512">
<path d="M0 0 C1.09611268 -0.00570851 1.09611268 -0.00570851 2.21436906 -0.01153234 C4.68223525 -0.02190312 7.14987377 -0.01793191 9.61775589 -0.01409245 C11.39727226 -0.01854189 13.17678665 -0.02385496 14.95629811 -0.02996117 C19.86150082 -0.04418703 24.76664031 -0.0458036 29.67186069 -0.04536426 C34.95625822 -0.04700845 40.24062938 -0.0600675 45.52501297 -0.07155704 C57.08691969 -0.09443743 68.64880808 -0.10233095 80.21073437 -0.10738349 C87.42662391 -0.11063704 94.6425081 -0.11715745 101.85839462 -0.12438488 C121.82720519 -0.14395493 141.79601077 -0.16035671 161.76483154 -0.16326141 C163.68279419 -0.16354277 163.68279419 -0.16354277 165.63950355 -0.16382981 C168.23176209 -0.16419606 170.82402063 -0.16455976 173.41627917 -0.16492092 C174.70312598 -0.16510373 175.9899728 -0.16528654 177.31581497 -0.16547489 C178.60422788 -0.16565544 179.89264078 -0.16583599 181.2200965 -0.16602201 C202.10210355 -0.16956446 222.98400752 -0.1965895 243.86597881 -0.23397278 C265.29227825 -0.27202434 286.71852651 -0.29141866 308.14486051 -0.29172093 C320.18017594 -0.29230621 332.21536845 -0.30084414 344.25065231 -0.32971859 C354.49817882 -0.35419036 364.74553756 -0.36154383 374.99308535 -0.34647106 C380.22333438 -0.3392849 385.45325186 -0.34023304 390.68346405 -0.36288166 C395.47033604 -0.38341218 400.25662034 -0.38092685 405.04348555 -0.36000682 C406.77635316 -0.35650054 408.50926266 -0.36146989 410.24207529 -0.37571125 C412.59677996 -0.39381836 414.94940528 -0.38112227 417.30404663 -0.36076355 C419.26609043 -0.36198523 419.26609043 -0.36198523 421.26777148 -0.3632316 C426.34352996 0.50688562 430.25018694 2.94839322 433.26783085 7.1671505 C435.67036735 14.67913754 434.82878983 22.17223512 434.21303177 29.90288448 C434.09961942 31.49595273 433.98781009 33.08913576 433.87745667 34.68241882 C433.56996576 39.05561359 433.23995194 43.42686037 432.90631938 47.79812765 C432.54853391 52.53971377 432.21208567 57.28281963 431.87308121 62.02577877 C431.28017335 70.28117866 430.67421001 78.5355361 430.05934525 86.78932858 C429.16524883 98.79246877 428.29007149 110.79692677 427.42044854 122.80186236 C427.01135784 128.44904304 426.60159285 134.09617473 426.19163895 139.74329281 C426.10909642 140.88036613 426.0265539 142.01743946 425.94151008 143.18896955 C425.3438376 151.41628522 424.74219638 159.64330559 424.13896561 167.87021542 C421.71388627 200.95731766 419.34989824 234.04838769 417.02297783 267.1425333 C416.47432015 274.94490724 415.92416918 282.74717537 415.37360001 290.54941463 C415.28365727 291.82414511 415.19371454 293.09887558 415.10104626 294.41223425 C414.74021389 299.52598116 414.37934048 304.63972517 414.01840866 309.75346506 C413.04144096 323.59589174 412.06621163 337.43843549 411.09593582 351.28133297 C410.34236893 362.03067937 409.58335664 372.77962593 408.81769592 383.5281179 C408.42522784 389.03997585 408.03528953 394.55198319 407.65198326 400.0644865 C407.29992419 405.12715699 406.94100386 410.18929232 406.57660258 415.25108898 C406.44565409 417.08711931 406.31724542 418.92333288 406.19160783 420.75973427 C406.02045276 423.2559525 405.84009266 425.75134267 405.65742874 428.24674129 C405.61055076 428.96283719 405.56367277 429.67893308 405.51537424 430.41672885 C405.08836532 436.03505342 404.34834223 441.23757093 401.0287056 445.88506222 C391.32456606 453.26020827 377.51514484 456.20988992 366.09184647 460.04378414 C360.48687719 461.92543774 354.88678853 463.82150945 349.2865181 465.71709347 C348.15210785 466.10080608 347.0176976 466.4845187 345.84891129 466.87985897 C335.28079699 470.45980443 324.74511005 474.12919502 314.2162056 477.82256222 C297.09686183 483.82303729 279.94218034 489.71452078 262.7577095 495.52593136 C253.87640517 498.53144757 245.00683749 501.5588825 236.1771431 504.71318722 C233.99337973 505.48733189 231.80932078 506.26063794 229.6252327 507.03386593 C227.66859127 507.73243368 225.7185223 508.4473851 223.76820755 509.16338253 C222.59991409 509.57684933 221.43162064 509.99031612 220.22792435 510.41631222 C219.23881058 510.77531612 218.24969681 511.13432003 217.23060989 511.50420284 C208.15699818 513.5656912 200.80474874 511.68908651 192.18886185 508.63115597 C191.0771965 508.25030849 189.96553116 507.86946102 188.82017899 507.47707272 C185.19698909 506.23175529 181.58174653 504.96489679 177.9662056 503.69756222 C175.43287702 502.82213638 172.89916261 501.94791934 170.36488724 501.07524776 C164.03416218 498.89192266 157.71057643 496.68861769 151.38917923 494.47844601 C148.20441638 493.36517882 145.01871595 492.25466471 141.83241653 491.14580441 C134.77645227 488.69016303 127.7211701 486.23265469 120.67103958 483.76030636 C108.48323448 479.48857711 96.26735792 475.30421772 84.03697586 471.15605831 C78.16061536 469.16164272 72.28699092 467.15918241 66.41333389 465.15682125 C61.71619234 463.55608871 57.0177042 461.95959312 52.31581497 460.37285519 C47.94246265 458.89637675 43.57417438 457.40578407 39.20930862 455.90441036 C37.60876004 455.35663956 36.00645143 454.81398054 34.40230179 454.27684689 C32.20776218 453.54128712 30.02019845 452.78778431 27.8333931 452.02959347 C26.60862259 451.61298458 25.38385208 451.19637569 24.12196732 450.7671423 C19.40807906 448.55967513 16.75833197 445.54200178 13.9037056 441.26006222 C12.85422392 437.258661 12.60447709 433.22766735 12.30655003 429.11066723 C12.25414578 428.39847743 12.20174153 427.68628763 12.14774927 426.95251632 C11.97250006 424.56006325 11.80179791 422.16730768 11.63107681 419.77452755 C11.50530889 418.04419111 11.37926877 416.31387443 11.25297946 414.58357596 C10.90641862 409.82379483 10.56388349 405.06373123 10.22203219 400.30360985 C9.85281422 395.17175462 9.47996953 390.04016264 9.10766983 384.90853024 C8.2093611 372.51478294 7.31726149 360.12059166 6.42595032 347.72633946 C6.09028595 343.06002698 5.75422074 338.3937434 5.41813526 333.72746123 C3.93697021 313.16255558 2.45759433 292.5975221 0.98340702 272.03211498 C0.62262477 266.99937247 0.26183433 261.96663055 -0.09897995 256.93389034 C-0.18865751 255.68302044 -0.27833507 254.43215054 -0.37073014 253.14337549 C-1.82447132 232.87009275 -3.28936067 212.59763173 -4.75889774 192.32548848 C-6.26714843 171.51681021 -7.76551769 150.70743906 -9.25415307 129.89734817 C-10.09034242 118.21144436 -10.93087655 106.52588833 -11.78244209 94.84109402 C-12.50745783 84.89232015 -13.22353494 74.94295417 -13.92790409 64.99269632 C-14.28757402 59.91571639 -14.65150481 54.83913668 -15.02690125 49.76329327 C-15.37053823 45.11551348 -15.70200214 40.46703018 -16.02384547 35.81769189 C-16.14233194 34.13701203 -16.265256 32.4566378 -16.3930948 30.77664343 C-17.91800682 10.66058744 -17.91800682 10.66058744 -12.6587944 4.32256222 C-8.07542733 0.63351067 -5.86114263 0.00874622 0 0 Z " fill="#FE641A" transform="translate(47.09629440307617,-0.26006221771240234)"/>
<path d="M0 0 C1.57299896 -0.00967334 1.57299896 -0.00967334 3.17777568 -0.0195421 C4.90406311 -0.01489629 4.90406311 -0.01489629 6.66522503 -0.01015663 C7.88876948 -0.01468774 9.11231392 -0.01921886 10.37293547 -0.02388728 C13.77092595 -0.03437122 17.16870507 -0.03585479 20.56669676 -0.03349853 C24.23075007 -0.03309079 27.89477166 -0.04412535 31.55881023 -0.05361366 C38.73821377 -0.07023439 45.91758448 -0.0757237 53.09700564 -0.07683842 C58.93257254 -0.07778843 64.76812859 -0.08189637 70.60369205 -0.08823967 C87.14586385 -0.10585536 103.68800967 -0.11507808 120.23019091 -0.11357872 C121.12218891 -0.11349881 122.0141869 -0.1134189 122.93321514 -0.11333656 C123.82630139 -0.1132548 124.71938765 -0.11317304 125.63953712 -0.1130888 C140.11315132 -0.11227591 154.58666145 -0.13141352 169.06024555 -0.1596133 C183.91894647 -0.18833513 198.77759663 -0.20215396 213.63632601 -0.20042574 C221.97943686 -0.19976158 230.32243863 -0.20526544 238.66552448 -0.22678185 C245.76927516 -0.2449845 252.87286731 -0.24934861 259.9766312 -0.235763 C263.60083908 -0.22922851 267.22474275 -0.22913306 270.84892178 -0.2464695 C274.77879754 -0.26507481 278.70822809 -0.25265802 282.63812542 -0.23720741 C284.3543746 -0.2526381 284.3543746 -0.2526381 286.10529548 -0.26838052 C292.57602487 -0.2120476 296.58035923 0.39337777 301.84215069 4.25726891 C305.66838018 8.66931293 306.26483085 13.61532274 305.90506268 19.26674461 C305.79077671 20.53629242 305.79077671 20.53629242 305.67418194 21.83148766 C305.57989658 23.19173309 305.57989658 23.19173309 305.48370647 24.57945824 C305.35056533 26.4994877 305.20899532 28.41894913 305.05949688 30.33777428 C304.77516583 34.15704058 304.57768761 37.97863078 304.37996197 41.80319786 C304.17836646 45.60395107 303.9427443 49.40225079 303.70469952 53.20087242 C303.58660463 55.13634381 303.47543335 57.07224841 303.37071514 59.00848961 C303.21503886 61.87002463 303.03679286 64.72939331 302.85386944 67.58930016 C302.8120303 68.44457802 302.77019115 69.29985588 302.72708416 70.18105125 C302.24022213 77.17860333 300.44491127 82.84041979 295.21715069 87.69476891 C290.93929829 90.50914548 287.59509067 90.39540368 282.59126568 90.37752342 C281.72792728 90.37837785 280.86458888 90.37923227 279.97508872 90.38011259 C277.06535818 90.38176733 274.15568456 90.37624609 271.24595928 90.3707943 C269.16687299 90.3705124 267.0877866 90.37067021 265.00870037 90.3712368 C259.34989971 90.37152467 253.69112007 90.36562963 248.03232431 90.35866284 C242.12393296 90.35242756 236.21554116 90.35182537 230.30714703 90.35063744 C219.1122217 90.34752464 207.91730609 90.33931194 196.72238505 90.32928795 C183.98013984 90.31812522 171.23789417 90.31261596 158.49564528 90.30759251 C132.27780835 90.29712929 106.05998007 90.27953083 79.84215069 90.25726891 C79.97927471 91.33033287 80.11639874 92.40339684 80.25767803 93.50897789 C80.43955055 94.94459739 80.62135003 96.38022614 80.80308819 97.81586266 C80.893242 98.51981163 80.98339581 99.2237606 81.07628155 99.94904137 C82.26383134 109.35996681 82.89706286 118.70124954 82.86558819 128.19086266 C82.86305035 129.21705711 82.86305035 129.21705711 82.86046124 130.26398277 C82.85609837 131.92841696 82.8493751 133.59284468 82.84215069 135.25726891 C83.87675206 135.25358173 84.91135344 135.24989456 85.97730637 135.24609566 C111.1488545 135.15730618 136.32038234 135.09157003 161.49205399 135.05002022 C173.66488046 135.02939308 185.83760349 135.00126943 198.01036358 134.95551109 C208.61986785 134.91564816 219.2292972 134.8898372 229.83887428 134.88091493 C235.45683181 134.8756993 241.07457502 134.86343724 246.69246387 134.83434868 C251.98082415 134.80718835 257.26888193 134.79882526 262.55730534 134.80483818 C264.49751333 134.80373823 266.43773149 134.79578813 268.37787914 134.78044701 C271.02951244 134.76050942 273.6800076 134.76534335 276.3316679 134.77625084 C277.09724957 134.76459947 277.86283123 134.75294811 278.65161234 134.74094367 C285.25009129 134.81417777 289.49239896 136.96776722 294.27965069 141.63226891 C298.53763315 151.51078821 295.5435357 165.47848014 294.77232647 176.10980797 C294.65694247 177.75077083 294.54197468 179.39176299 294.42738628 181.0327816 C294.11788053 185.44604645 293.80215199 189.85884447 293.48486471 194.2715559 C293.21955813 197.96933934 292.95734161 201.66733937 292.6950959 205.36534095 C292.07625062 214.09103523 291.45231177 222.81635482 290.82506084 231.54144859 C290.17971101 240.51945594 289.54267657 249.49802589 288.90975869 258.47691751 C288.36407424 266.21435761 287.81340036 273.95143155 287.25872314 281.68823218 C286.92834705 286.2969519 286.59978128 290.9057815 286.27596188 295.51496696 C285.9714504 299.84602344 285.6606701 304.17658652 285.34518337 308.50685692 C285.23091785 310.08926556 285.11879879 311.671831 285.00906658 313.25456047 C283.36575891 336.90087526 283.36575891 336.90087526 277.59668255 342.85028458 C274.61876897 345.23831629 271.50559393 346.3516523 267.88707256 347.46063805 C267.10995419 347.71928831 266.33283581 347.97793858 265.53216839 348.24442673 C262.96475818 349.09385525 260.38835055 349.91152057 257.81090069 350.72992516 C255.98034191 351.32964952 254.15056229 351.93175674 252.32152081 352.53609276 C248.46470461 353.80830763 244.60458629 355.06972448 240.74205303 356.32446861 C232.11736717 359.13670285 223.54282597 362.09527773 214.96080303 365.03444099 C209.28447452 366.97280467 203.59966903 368.88609909 197.91530132 370.80073166 C193.08657853 372.42790711 188.26051098 374.06224626 183.43931866 375.71161461 C178.64461176 377.35163655 173.8442501 378.97395212 169.03940105 380.58400726 C167.24165186 381.18975042 165.44597401 381.80168143 163.65259075 382.42023087 C161.17360618 383.27408805 158.68798174 384.10493649 156.19957256 384.93085289 C155.48282864 385.18362495 154.76608471 385.43639702 154.02762127 385.69682884 C144.38416531 388.82714084 135.9285307 385.58330075 126.64049053 382.47528648 C125.45073116 382.08488182 124.26097179 381.69447716 123.03515911 381.29224205 C119.79533328 380.22656604 116.55840722 379.15288456 113.32284784 378.07437158 C110.61265631 377.17188926 107.90079442 376.27448244 105.1889931 375.37685126 C98.78861187 373.25790305 92.39159469 371.12901701 85.99644756 368.99432945 C79.41624449 366.79811238 72.82996936 364.62088581 66.24053514 362.45254022 C60.56498725 360.5840454 54.89379041 358.7027481 49.22579062 356.8114807 C45.8484033 355.68474401 42.46955197 354.56304852 39.08627224 353.45411682 C35.31290266 352.21670546 31.54874497 350.95269 27.78502178 349.68622398 C26.67418728 349.3259864 25.56335278 348.96574883 24.41885662 348.59459496 C17.65800391 346.288999 11.4017331 343.71441251 7.6993494 337.26724529 C5.23529736 331.48948767 5.59469249 324.58357307 5.34215069 318.38226891 C5.1095445 312.72218488 4.74931805 307.13407736 4.08287334 301.50824547 C3.38030614 294.93860081 3.20566961 288.31084216 2.94176006 281.71185875 C2.87898896 280.16504347 2.81074415 278.61843132 2.73472881 277.07221031 C2.23743692 266.60624577 2.23743692 266.60624577 4.46715069 261.63226891 C9.22940104 256.87001855 12.88159847 254.75651868 19.67027569 254.75555992 C20.32475689 254.75015694 20.97923809 254.74475395 21.65355206 254.73918724 C23.80022278 254.72675928 25.94553648 254.74314897 28.09215069 254.76117516 C29.593779 254.76102003 31.09540772 254.75952875 32.5970335 254.75676537 C35.737514 254.75538404 38.87753633 254.76789396 42.01793194 254.79071617 C46.03283552 254.81910047 50.04697841 254.81636014 54.06193829 254.80362606 C57.16073831 254.79665361 60.25936413 254.80447592 63.3581419 254.81688309 C64.83803418 254.82138241 66.31794526 254.82174772 67.79783916 254.81781769 C69.87028783 254.81488991 71.94170748 254.8314847 74.01402569 254.85321617 C75.19061749 254.85861916 76.36720928 254.86402214 77.57945538 254.86958885 C81.896823 255.3825872 85.29192238 256.81014367 88.48668194 259.79242516 C91.7511276 264.06131564 92.97305226 266.0469465 92.90465069 271.38226891 C92.89562725 272.29234703 92.88660381 273.20242516 92.87730694 274.14008141 C92.86570538 274.83875328 92.85410381 275.53742516 92.84215069 276.25726891 C94.13435528 276.52386314 95.42655987 276.79045738 96.75792217 277.06513023 C101.69543295 278.16416868 106.41240268 279.68328603 111.18980694 281.33148766 C112.94672892 281.92269459 114.703898 282.51316764 116.46129131 283.10297203 C119.19126245 284.02394689 121.91920631 284.94978428 124.64317608 285.88837242 C127.29973229 286.80110851 129.96263765 287.69276248 132.62730694 288.58148766 C133.43273434 288.86473396 134.23816174 289.14798027 135.06799603 289.4398098 C144.36213719 292.49966505 151.7198562 289.87922509 160.68590069 286.87836266 C161.69559917 286.54683693 162.70529766 286.2153112 163.74559307 285.87373924 C166.94675158 284.82093134 170.14444819 283.75802184 173.34215069 282.69476891 C175.52161685 281.97599845 177.70130225 281.25789243 179.88121319 280.54047203 C185.20408699 278.78708548 190.52416083 277.02540944 195.84215069 275.25726891 C195.92779278 274.02685875 196.01343487 272.79644859 196.10167217 271.52875328 C196.42189808 266.93647493 196.74500618 262.34440303 197.06895733 257.75238609 C197.20840817 255.77001886 197.34709145 253.78759747 197.48497295 251.80512047 C197.68401267 248.94527178 197.88586928 246.08563327 198.08824444 243.22601891 C198.14870449 242.34861046 198.20916454 241.47120201 198.27145672 240.56720543 C198.33144344 239.7269381 198.39143017 238.88667076 198.45323467 238.02094078 C198.50430874 237.29258018 198.5553828 236.56421959 198.60800457 235.81378746 C198.93138676 232.28294706 199.39755159 228.77493961 199.84215069 225.25726891 C198.37390252 225.26279966 198.37390252 225.26279966 196.87599277 225.26844215 C173.06506518 225.35721811 149.25415903 225.42296134 125.44310093 225.46451759 C113.92827125 225.48514775 102.41355085 225.51327714 90.89879131 225.55902672 C80.8631855 225.59888044 70.82765884 225.62469841 60.79197609 225.63362288 C55.47753517 225.63884008 50.16332068 225.65111204 44.84895229 225.68018913 C39.84704132 225.70733497 34.84545012 225.71571552 29.84347248 225.70969963 C28.00765972 225.71080023 26.17183629 225.71875904 24.33608723 225.73409081 C21.82859111 225.75400595 19.3223007 225.74920294 16.81477642 225.73828697 C15.72623531 225.75576402 15.72623531 225.75576402 14.61570346 225.77359414 C9.56436034 225.71419451 6.74923602 224.39650982 2.84215069 221.25726891 C-1.36693178 216.70690949 -2.17817371 213.28605877 -2.59095478 207.24970055 C-2.661395 206.24681496 -2.73183521 205.24392937 -2.80440998 204.21065331 C-2.91362026 202.58050537 -2.91362026 202.58050537 -3.02503681 200.91742516 C-3.14385464 199.21265259 -3.14385464 199.21265259 -3.26507282 197.47344017 C-3.43523195 195.02949557 -3.60387413 192.58544498 -3.77116108 190.14130211 C-4.21142404 183.711974 -4.6626083 177.28341819 -5.11488056 170.85492516 C-5.20436466 169.58122063 -5.29384876 168.3075161 -5.3860445 166.99521446 C-6.08805455 157.07556847 -6.8791719 147.16590669 -7.72034931 137.25726891 C-8.99002738 122.23985816 -9.94365435 107.2092402 -10.84260273 92.16544151 C-11.61191331 79.30406486 -12.51816134 66.46974211 -13.64420795 53.63477135 C-14.62069586 42.39604895 -15.49604472 31.16554594 -15.72034931 19.88226891 C-15.75926289 18.88977135 -15.79817646 17.89727379 -15.83826923 16.87470055 C-15.86142389 11.04538606 -14.8918666 7.86307758 -10.84119892 3.61029625 C-7.31385806 0.77512249 -4.50585434 0.00700658 0 0 Z " fill="#FFF4F4" transform="translate(111.15784931182861,59.74273109436035)"/>
<path d="M0 0 C0.88461058 -0.00170885 1.76922117 -0.0034177 2.68063813 -0.00517833 C5.65642092 -0.00848285 8.63198016 0.00254631 11.60774231 0.01345825 C13.73623652 0.01402216 15.86473112 0.01370621 17.9932251 0.01257324 C23.7821529 0.01199792 29.57099831 0.02378119 35.35990691 0.03772116 C41.40575607 0.05019871 47.45160699 0.05139666 53.49746704 0.05377197 C64.95090923 0.0599955 76.40431338 0.07641812 87.85773879 0.09647095 C100.8950399 0.11880281 113.93234279 0.12981655 126.96965826 0.13986182 C153.79281185 0.1607836 180.61591328 0.19747073 207.43904114 0.24050903 C207.43904114 20.04050903 207.43904114 39.84050903 207.43904114 60.24050903 C202.92651672 60.24985474 198.41399231 60.25920044 193.76472473 60.26882935 C178.8687997 60.30257019 163.973013 60.35790154 149.07719994 60.42441177 C140.04432758 60.46421508 131.01154251 60.496601 121.97859192 60.51150513 C114.10513306 60.52451497 106.23186614 60.55146249 98.35851538 60.5951221 C94.18989022 60.61775204 90.02150194 60.6334188 85.85280991 60.63239288 C81.92762135 60.63164717 78.00295674 60.6495619 74.07790375 60.68167686 C72.63882207 60.69018289 71.19968167 60.69192097 69.76058578 60.68631172 C67.79208286 60.67966205 65.82354443 60.69996968 63.85514832 60.7215271 C62.75452749 60.72521427 61.65390667 60.72890144 60.5199337 60.73270035 C55.88872939 61.49603945 52.76831194 63.82861926 49.58894348 67.20559692 C43.87203163 77.32246747 48.59906046 97.42853273 49.60638428 108.97602844 C50.79904326 122.70012118 51.83451345 136.43087067 52.72029114 150.17800903 C52.79626589 151.35260776 52.79626589 151.35260776 52.87377548 152.55093575 C53.28431957 158.90892934 53.68742986 165.26738904 54.09010315 171.62588501 C54.44248331 177.18515512 54.79789316 182.74422032 55.15779114 188.30300903 C55.20809479 189.08092678 55.25839844 189.85884453 55.31022644 190.66033554 C56.19928742 204.32667742 57.260266 217.97619685 58.41157532 231.62283325 C59.30979748 242.30692046 60.0428322 252.99151761 60.63824463 263.69726562 C61.04745617 270.76301097 61.57256539 276.58377541 67.00154114 281.61550903 C71.10367091 284.35026221 74.11351876 284.39233738 78.9306488 284.39872742 C79.71231615 284.40366539 80.4939835 284.40860337 81.29933774 284.41369098 C83.93265463 284.42911483 86.56594704 284.43743978 89.19929504 284.4458313 C91.08134173 284.45540599 92.96338624 284.46541582 94.84542847 284.47583008 C99.96703368 284.50292957 105.08864817 284.52391177 110.21028566 284.54383206 C115.55815105 284.56566057 120.90598772 284.59306456 126.25382996 284.61988831 C136.38625591 284.66985769 146.51869776 284.71478074 156.65115488 284.75791067 C168.1842535 284.80724681 179.71732332 284.86217835 191.25039411 284.91759026 C214.97991626 285.03147547 238.70946603 285.13830023 262.43904114 285.24050903 C262.28468167 288.56567777 262.12871765 291.89076946 261.9724884 295.21585083 C261.92927711 296.1471154 261.88606583 297.07837997 261.8415451 298.03786469 C261.46372177 306.05195028 260.95332683 314.05064167 260.37654114 322.05300903 C260.28566223 323.341427 260.19478333 324.62984497 260.10115051 325.95730591 C259.88257572 329.05186481 259.66188967 332.1462555 259.43904114 335.24050903 C250.49837344 339.07959811 241.2674767 342.10735942 232.03425598 345.15139771 C230.2148663 345.75443182 228.39779754 346.3645122 226.58308411 346.98147583 C223.93333694 347.8819889 221.27721015 348.76069965 218.61872864 349.63504028 C217.81643829 349.91201248 217.01414795 350.18898468 216.18754578 350.47434998 C207.18121056 353.3762076 200.03583096 351.02123429 191.35700989 348.11550903 C189.95301689 347.65507202 189.95301689 347.65507202 188.5206604 347.18533325 C185.55365029 346.21056182 182.59010182 345.22571161 179.62654114 344.24050903 C177.616996 343.57838116 175.60723231 342.91691617 173.59724426 342.25613403 C167.5405342 340.26284975 161.48810736 338.25686444 155.43904114 336.24050903 C155.40036926 335.2621106 155.40036926 335.2621106 155.36091614 334.26394653 C154.91888792 327.45269353 153.68932361 323.09681787 148.37654114 318.42800903 C144.57890264 316.10042415 141.32458994 316.09511632 136.96736145 316.04763794 C136.31492462 316.03946045 135.66248779 316.03128296 134.99028015 316.02285767 C132.83258468 315.99806094 130.67495482 315.98150108 128.51716614 315.96707153 C127.77844017 315.96174786 127.0397142 315.95642418 126.2786026 315.95093918 C122.36724893 315.92423041 118.4559269 315.90484968 114.54450989 315.89041138 C111.31440347 315.87708197 108.08493028 315.84924598 104.85505676 315.80838013 C100.94819403 315.75895421 97.04190475 315.73427838 93.13474274 315.7271843 C91.65002429 315.72048905 90.16531777 315.70531185 88.6807785 315.68129349 C79.42602298 315.28416055 79.42602298 315.28416055 71.06233215 318.65213013 C67.77897112 321.8917945 66.59148716 323.42149209 66.20857239 327.99050903 C66.36580294 339.88285634 66.53974554 351.90126979 67.94685364 363.72097778 C68.61387648 369.39160265 68.7767338 375.07588622 68.95661926 380.77957153 C69.31394467 389.49022116 69.712179 396.98082056 76.43904114 403.24050903 C79.10243287 404.51719079 81.43930852 405.46118512 84.22395325 406.33084106 C84.99680475 406.58968456 85.76965626 406.84852806 86.56592751 407.1152153 C89.13124747 407.96959528 91.70465806 408.79620537 94.27888489 409.62332153 C96.10916687 410.22734444 97.93882102 410.83327267 99.7678833 411.440979 C103.6518875 412.72837279 107.53924169 414.0048523 111.42945862 415.27334595 C117.37615398 417.21503349 123.30963348 419.19484302 129.24031067 421.18484497 C137.16886469 423.84375912 145.09972639 426.49547289 153.03474426 429.13504028 C154.01516001 429.46117687 154.99557575 429.78731346 156.00570107 430.12333298 C157.99541111 430.78515068 159.98513373 431.44693056 161.97486877 432.1086731 C168.05109429 434.12995637 174.12651354 436.15366178 180.20207977 438.17692566 C189.28047584 441.1998999 198.35984269 444.21994076 207.43904114 447.24050903 C207.43904114 468.69050903 207.43904114 490.14050903 207.43904114 512.24050903 C198.43871014 511.11546766 198.43871014 511.11546766 194.34797668 509.712677 C192.96286644 509.24396179 192.96286644 509.24396179 191.54977417 508.76577759 C190.0776371 508.25440247 190.0776371 508.25440247 188.57575989 507.73269653 C187.52798874 507.37550537 186.48021759 507.01831421 185.4006958 506.65029907 C181.97333713 505.47959219 178.54994583 504.29772313 175.12654114 503.11550903 C172.72617857 502.29284918 170.32562283 501.47075277 167.92488098 500.64920044 C151.71429699 495.09339342 135.53063968 489.4599359 119.35920715 483.79129028 C107.11897324 479.50380968 94.85143772 475.30129938 82.56929016 471.13549805 C76.69393058 469.14138635 70.82129135 467.13927599 64.94862366 465.13725281 C60.2514975 463.53652495 55.5530245 461.94003479 50.85115051 460.353302 C46.47779819 458.87682357 42.10950992 457.38623089 37.74464417 455.88485718 C36.14409558 455.33708638 34.54178697 454.79442736 32.93763733 454.2572937 C30.74309772 453.52173394 28.55553399 452.76823113 26.36872864 452.01004028 C25.14395813 451.5934314 23.91918762 451.17682251 22.65730286 450.74758911 C17.9434146 448.54012194 15.29366751 445.52244859 12.43904114 441.24050903 C11.38955946 437.23910781 11.13981263 433.20811416 10.84188557 429.09111404 C10.78948132 428.37892424 10.73707707 427.66673444 10.68308482 426.93296313 C10.5078356 424.54051007 10.33713345 422.1477545 10.16641235 419.75497437 C10.04064443 418.02463792 9.91460431 416.29432125 9.788315 414.56402278 C9.44175416 409.80424165 9.09921903 405.04417804 8.75736773 400.28405666 C8.38814976 395.15220144 8.01530507 390.02060945 7.64300537 384.88897705 C6.74469664 372.49522975 5.85259703 360.10103847 4.96128586 347.70678627 C4.62562149 343.04047379 4.28955628 338.37419022 3.9534708 333.70790805 C2.47230575 313.1430024 0.99292987 292.57796892 -0.48125744 272.0125618 C-0.84203969 266.97981929 -1.20283013 261.94707737 -1.56364441 256.91433716 C-1.65332197 255.66346726 -1.74299953 254.41259735 -1.8353946 253.1238223 C-3.28913578 232.85053956 -4.75402513 212.57807854 -6.2235622 192.30593529 C-7.73181289 171.49725702 -9.23018215 150.68788588 -10.71881753 129.87779498 C-11.55500688 118.19189117 -12.39554101 106.50633515 -13.24710655 94.82154083 C-13.97212229 84.87276697 -14.6881994 74.92340098 -15.39256855 64.97314313 C-15.75223848 59.8961632 -16.11616927 54.81958349 -16.4915657 49.74374008 C-16.83520269 45.0959603 -17.1666666 40.44747699 -17.48850993 35.79813871 C-17.6069964 34.11745884 -17.72992045 32.43708461 -17.85775926 30.75709024 C-19.38267128 10.64103425 -19.38267128 10.64103425 -14.12345886 4.30300903 C-9.22820631 0.36292771 -6.10410744 -0.04275619 0 0 Z " fill="#FF9100" transform="translate(48.56095886230469,-0.240509033203125)"/>
<path d="M0 0 C34.82629968 -0.16121214 34.82629968 -0.16121214 49.42382812 -0.1953125 C59.50179183 -0.21904408 69.57962174 -0.24693776 79.6574707 -0.30175781 C86.99723711 -0.34166455 94.33689493 -0.36744204 101.67676681 -0.37635398 C105.56213477 -0.38156228 109.44719213 -0.39377686 113.3324604 -0.42292023 C116.99243689 -0.45015023 120.65197598 -0.45842987 124.31204414 -0.45243073 C126.2895784 -0.45404904 128.26706544 -0.4755321 130.24447632 -0.49768066 C138.62736628 -0.45886753 143.30929365 0.40392714 149.4375 6.375 C153.69548246 16.2535193 150.70138501 30.22121124 149.93017578 40.85253906 C149.81479179 42.49350192 149.69982399 44.13449409 149.5852356 45.7755127 C149.27572984 50.18877754 148.9600013 54.60157556 148.64271402 59.01428699 C148.37740744 62.71207043 148.11519092 66.41007047 147.85294521 70.10807204 C147.23409993 78.83376633 146.61016108 87.55908591 145.98291016 96.28417969 C145.33756032 105.26218704 144.70052588 114.24075699 144.067608 123.2196486 C143.52192355 130.9570887 142.97124967 138.69416265 142.41657245 146.43096328 C142.08619636 151.039683 141.75763059 155.64851259 141.43381119 160.25769806 C141.12929971 164.58875454 140.81851941 168.91931761 140.50303268 173.24958801 C140.38876716 174.83199666 140.2766481 176.4145621 140.16691589 177.99729156 C138.52360822 201.64360636 138.52360822 201.64360636 132.75453186 207.59301567 C129.77661829 209.98104739 126.66344324 211.0943834 123.04492188 212.20336914 C122.2678035 212.46201941 121.49068512 212.72066967 120.6900177 212.98715782 C118.12260749 213.83658635 115.54619986 214.65425167 112.96875 215.47265625 C111.13819122 216.07238062 109.3084116 216.67448784 107.47937012 217.27882385 C103.62255392 218.55103872 99.7624356 219.81245557 95.89990234 221.06719971 C87.27521648 223.87943394 78.70067528 226.83800883 70.11865234 229.77717209 C64.44232384 231.71553577 58.75751835 233.62883018 53.07315063 235.54346275 C48.24442784 237.1706382 43.41836029 238.80497736 38.59716797 240.4543457 C33.80246107 242.09436764 29.00209942 243.71668322 24.19725037 245.32673836 C22.39950117 245.93248151 20.60382333 246.54441253 18.81044006 247.16296196 C16.33145549 248.01681914 13.84583105 248.84766759 11.35742188 249.67358398 C10.64067795 249.92635605 9.92393402 250.17912811 9.18547058 250.43955994 C-0.45798538 253.56987194 -8.91361998 250.32603184 -18.20166016 247.21801758 C-19.39141953 246.82761292 -20.58117889 246.43720825 -21.80699158 246.03497314 C-25.04681741 244.96929714 -28.28374347 243.89561566 -31.51930285 242.81710267 C-34.22949438 241.91462035 -36.94135627 241.01721354 -39.65315759 240.11958236 C-46.05353882 238.00063414 -52.450556 235.8717481 -58.84570312 233.73706055 C-65.42590619 231.54084347 -72.01218132 229.36361691 -78.60161555 227.19527131 C-84.27716344 225.3267765 -89.94836028 223.44547919 -95.61636007 221.5542118 C-98.99374739 220.42747511 -102.37259871 219.30577962 -105.75587845 218.19684792 C-109.52924803 216.95943656 -113.29340572 215.6954211 -117.05712891 214.42895508 C-118.16796341 214.0687175 -119.27879791 213.70847992 -120.42329407 213.33732605 C-127.18414678 211.0317301 -133.44041759 208.45714361 -137.14280128 202.00997639 C-139.60685332 196.23221876 -139.2474582 189.32630416 -139.5 183.125 C-139.73260619 177.46491598 -140.09283264 171.87680845 -140.75927734 166.25097656 C-141.46184455 159.68133191 -141.63648108 153.05357326 -141.90039062 146.45458984 C-141.96316172 144.90777456 -142.03140654 143.36116241 -142.10742188 141.81494141 C-142.60471377 131.34897686 -142.60471377 131.34897686 -140.375 126.375 C-135.61274964 121.61274964 -131.96055222 119.49924977 -125.171875 119.49829102 C-124.5173938 119.49288803 -123.8629126 119.48748505 -123.18859863 119.48191833 C-121.04192791 119.46949037 -118.89661421 119.48588006 -116.75 119.50390625 C-115.24837168 119.50375112 -113.74674297 119.50225984 -112.24511719 119.49949646 C-109.10463668 119.49811514 -105.96461436 119.51062506 -102.82421875 119.53344727 C-98.80931517 119.56183157 -94.79517228 119.55909123 -90.7802124 119.54635715 C-87.68141238 119.53938471 -84.58278656 119.54720701 -81.48400879 119.55961418 C-80.00411651 119.56411351 -78.52420543 119.56447882 -77.04431152 119.56054878 C-74.97186286 119.557621 -72.90044321 119.57421579 -70.828125 119.59594727 C-69.6515332 119.60135025 -68.47494141 119.60675323 -67.26269531 119.61231995 C-62.94532769 120.1253183 -59.5502283 121.55287477 -56.35546875 124.53515625 C-53.09102309 128.80404673 -51.86909843 130.78967759 -51.9375 136.125 C-51.94652344 137.03507813 -51.95554687 137.94515625 -51.96484375 138.8828125 C-51.97644531 139.58148438 -51.98804688 140.28015625 -52 141 C-50.70779541 141.26659424 -49.41559082 141.53318848 -48.08422852 141.80786133 C-43.14671774 142.90689977 -38.42974801 144.42601713 -33.65234375 146.07421875 C-31.89542177 146.66542569 -30.13825269 147.25589873 -28.38085938 147.84570312 C-25.65088823 148.76667799 -22.92294438 149.69251538 -20.19897461 150.63110352 C-17.5424184 151.5438396 -14.87951304 152.43549357 -12.21484375 153.32421875 C-11.40941635 153.60746506 -10.60398895 153.89071136 -9.77415466 154.18254089 C-0.48001349 157.24239615 6.87770551 154.62195619 15.84375 151.62109375 C16.85344849 151.28956802 17.86314697 150.9580423 18.90344238 150.61647034 C22.10460089 149.56366244 25.3022975 148.50075293 28.5 147.4375 C30.67946616 146.71872955 32.85915157 146.00062353 35.0390625 145.28320312 C40.3619363 143.52981658 45.68201014 141.76814053 51 140 C51.08564209 138.76958984 51.17128418 137.53917969 51.25952148 136.27148438 C51.57974739 131.67920603 51.9028555 127.08713413 52.22680664 122.49511719 C52.36625748 120.51274996 52.50494076 118.53032857 52.64282227 116.54785156 C52.84186199 113.68800287 53.04371859 110.82836437 53.24609375 107.96875 C53.3065538 107.09134155 53.36701385 106.21393311 53.42930603 105.30993652 C53.48929276 104.46966919 53.54927948 103.62940186 53.61108398 102.76367188 C53.66215805 102.03531128 53.71323212 101.30695068 53.76585388 100.55651855 C54.08897947 97.02847992 54.56056913 93.51544695 55 90 C36.85 90 18.7 90 0 90 C0 60.3 0 30.6 0 0 Z " fill="#EFE1DC" transform="translate(256,195)"/>
<path d="M0 0 C37.33404403 -0.16121214 37.33404403 -0.16121214 52.97851562 -0.1953125 C63.7807576 -0.21904728 74.58287478 -0.24695 85.38500977 -0.30175781 C93.25215323 -0.34165502 101.11919544 -0.3674398 108.98643726 -0.37635398 C113.15125274 -0.38156387 117.31577861 -0.39378881 121.48050117 -0.42292023 C125.40311822 -0.45013504 129.32532722 -0.45843286 133.24802971 -0.45243073 C134.68512568 -0.45352826 136.12223574 -0.4614463 137.55924988 -0.4768219 C151.24479398 -0.61603075 151.24479398 -0.61603075 157 4 C160.82622949 8.41204403 161.42268017 13.35805384 161.06291199 19.00947571 C160.94862602 20.27902351 160.94862602 20.27902351 160.83203125 21.57421875 C160.76917435 22.48104904 160.70631744 23.38787933 160.64155579 24.32218933 C160.50841464 26.2422188 160.36684463 28.16168023 160.21734619 30.08050537 C159.93301514 33.89977167 159.73553692 37.72136187 159.53781128 41.54592896 C159.33621578 45.34668216 159.10059361 49.14498188 158.86254883 52.94360352 C158.74445394 54.8790749 158.63328266 56.8149795 158.52856445 58.7512207 C158.37288817 61.61275572 158.19464218 64.4721244 158.01171875 67.33203125 C157.96987961 68.18730911 157.92804047 69.04258698 157.88493347 69.92378235 C157.39807145 76.92133442 155.60276059 82.58315088 150.375 87.4375 C146.65010882 89.8880863 144.67600565 90.12407891 140.21676636 90.12025452 C138.98555054 90.12162918 137.75433472 90.12300385 136.48580933 90.12442017 C135.11407447 90.1208808 133.74233985 90.11724598 132.37060547 90.11352539 C130.93190513 90.11324344 129.49320465 90.11340141 128.05450439 90.1139679 C124.14151195 90.11425556 120.22854998 90.10836378 116.31556463 90.10139394 C112.22894284 90.09515531 108.1423204 90.0945562 104.05569458 90.09336853 C96.31382397 90.09025672 88.57196744 90.08204535 80.83010304 90.07201904 C70.37082445 90.05876664 59.91154202 90.05335678 49.45225716 90.04751682 C32.96816089 90.03810537 16.48409432 90.01818544 0 90 C0 60.3 0 30.6 0 0 Z " fill="#EFE1DC" transform="translate(256,60)"/>
<path d="M0 0 C0.6544812 -0.00540298 1.3089624 -0.01080597 1.98327637 -0.01637268 C4.12994709 -0.02880064 6.27526079 -0.01241095 8.421875 0.00561523 C9.92350332 0.00546011 11.42513203 0.00396883 12.92675781 0.00120544 C16.06723832 -0.00017588 19.20726064 0.01233404 22.34765625 0.03515625 C26.36255983 0.06354055 30.37670272 0.06080022 34.3916626 0.04806614 C37.49046262 0.04109369 40.58908844 0.048916 43.68786621 0.06132317 C45.16775849 0.06582249 46.64766957 0.0661878 48.12756348 0.06225777 C50.20001214 0.05932999 52.27143179 0.07592478 54.34375 0.09765625 C55.5203418 0.10305923 56.69693359 0.10846222 57.90917969 0.11402893 C62.22654731 0.62702728 65.6216467 2.05458375 68.81640625 5.03686523 C72.08085191 9.30575572 73.30277657 11.29138658 73.234375 16.62670898 C73.22535156 17.53678711 73.21632813 18.44686523 73.20703125 19.38452148 C73.19542969 20.08319336 73.18382812 20.78186523 73.171875 21.50170898 C75.10474365 21.90486328 75.10474365 21.90486328 77.07666016 22.31616211 C82.05032054 23.42349666 86.85496476 24.88813489 91.6953125 26.47045898 C92.56330475 26.75143433 93.431297 27.03240967 94.32559204 27.32189941 C96.14302665 27.91150585 97.95978311 28.50320643 99.77587891 29.09692383 C102.55812404 30.00538202 105.34332799 30.90431134 108.12890625 31.80249023 C109.90122623 32.37874581 111.6733682 32.95554923 113.4453125 33.53295898 C114.69216324 33.93460266 114.69216324 33.93460266 115.96420288 34.34436035 C117.12153427 34.72485535 117.12153427 34.72485535 118.30224609 35.11303711 C118.97903412 35.33350708 119.65582214 35.55397705 120.3531189 35.78112793 C122.171875 36.50170898 122.171875 36.50170898 125.171875 38.50170898 C125.45794444 41.49206204 125.54986399 44.27436337 125.51245117 47.26586914 C125.51288925 48.17324326 125.51332733 49.08061737 125.51377869 50.01548767 C125.51168339 53.02413213 125.48831744 56.032224 125.46484375 59.04077148 C125.45925043 61.12299291 125.45497909 63.20521828 125.45198059 65.28744507 C125.44051103 70.77517545 125.41102567 76.26266867 125.37786865 81.75030518 C125.34721323 87.34709464 125.33348495 92.94392232 125.31835938 98.54077148 C125.28615801 109.52785501 125.23493619 120.5147623 125.171875 131.50170898 C117.75340727 130.96949267 111.28128091 129.16607563 104.24560547 126.81152344 C103.08510681 126.43087234 101.92460815 126.05022125 100.72894287 125.65803528 C97.56969226 124.61921447 94.41334482 123.57239574 91.25835943 122.52074075 C88.61527148 121.6406265 85.97051354 120.76558827 83.32581627 119.89032429 C77.0836484 117.82411216 70.84484462 115.74796598 64.60791016 113.66601562 C58.19129938 111.52432932 51.76862237 109.40163578 45.3427819 107.28782111 C39.80735912 105.46603738 34.27629097 103.63144674 28.74841607 101.78688782 C25.45486374 100.68809631 22.15985387 99.59434318 18.86040878 98.51336098 C15.18043425 97.30708706 11.50968332 96.07419962 7.83935547 94.83886719 C6.75657318 94.48798035 5.67379089 94.13709351 4.55819702 93.77557373 C-2.13338727 91.49230933 -8.30817202 88.88650683 -11.97200203 82.51132679 C-14.43389244 76.73241537 -14.0755704 69.82832743 -14.328125 63.62670898 C-14.56073119 57.96662496 -14.92095764 52.37851743 -15.58740234 46.75268555 C-16.28996955 40.18304089 -16.46460608 33.55528224 -16.72851562 26.95629883 C-16.79128672 25.40948355 -16.85953154 23.8628714 -16.93554688 22.31665039 C-17.43283877 11.85068585 -17.43283877 11.85068585 -15.203125 6.87670898 C-10.44087464 2.11445863 -6.78867722 0.00095875 0 0 Z " fill="#FFF4F4" transform="translate(130.828125,314.498291015625)"/>
<path d="M0 0 C18.15 0 36.3 0 55 0 C54.41467566 12.29181113 53.82169776 24.54507485 52.9375 36.8125 C52.84662109 38.10091797 52.75574219 39.38933594 52.66210938 40.71679688 C52.44353458 43.81135578 52.22284853 46.90574647 52 50 C45.52031569 52.66930122 39.01216118 55.08209211 32.34375 57.234375 C31.04032654 57.65870819 31.04032654 57.65870819 29.71057129 58.09161377 C27.89612533 58.68138021 26.08113739 59.26948169 24.265625 59.85595703 C21.47758463 60.75724621 18.69183934 61.66538604 15.90625 62.57421875 C14.13554822 63.14884303 12.36471947 63.72307625 10.59375 64.296875 C9.76049194 64.56868591 8.92723389 64.84049683 8.06872559 65.12054443 C2.23033866 67 2.23033866 67 0 67 C0 44.89 0 22.78 0 0 Z " fill="#FE641A" transform="translate(256,285)"/>
<path d="M0 0 C21.45 0 42.9 0 65 0 C65 14.85 65 29.7 65 45 C44.54 45 24.08 45 3 45 C1.96567777 30.0023276 0.93775126 15.00402021 0 0 Z " fill="#FF9100" transform="translate(191,150)"/>
</svg>
