<?xml version="1.0" encoding="UTF-8"?>
<svg version="1.1" xmlns="http://www.w3.org/2000/svg" width="512" height="512">
<path d="M0 0 C1.34190854 -0.00787097 2.68380232 -0.01872801 4.02566528 -0.03230286 C7.63358102 -0.05968417 11.24004291 -0.04360595 14.84791946 -0.01745439 C18.64594762 0.00418123 22.44388462 -0.00954486 26.24194336 -0.01774597 C32.61692993 -0.02587723 38.99134066 -0.00537205 45.36621094 0.03222656 C52.70789671 0.07515476 60.04845385 0.07161401 67.39018536 0.04335898 C74.48952055 0.017211 81.58844134 0.02520051 88.68777466 0.04805946 C91.69235855 0.05709558 94.69657322 0.0542984 97.70114136 0.0415554 C101.24759412 0.02798879 104.79272945 0.04457126 108.33898544 0.08319283 C110.24020038 0.09707144 112.14155997 0.08197862 114.04275513 0.06561279 C125.44358909 0.24605302 133.94007259 4.90235963 142.97265625 11.51489258 C143.83068848 12.13678467 143.83068848 12.13678467 144.70605469 12.77124023 C148.57408975 15.60884753 152.28163105 18.61497996 155.9777832 21.67138672 C166.6334768 30.45846342 175.62769308 34.04476 189.47483826 34.02792358 C190.41661661 34.03074486 191.35839496 34.03356614 192.32871205 34.03647292 C195.48664644 34.04481024 198.64454573 34.04615646 201.80249023 34.04760742 C204.06619872 34.05227643 206.32990626 34.05742014 208.59361267 34.06300354 C213.47118987 34.07428261 218.34876097 34.08271787 223.22634697 34.08912277 C230.9471501 34.09981073 238.66790953 34.1200592 246.38868713 34.14224243 C249.03340428 34.14969765 251.67812149 34.15712655 254.32283878 34.1645298 C255.31428332 34.16730565 255.31428332 34.16730565 256.32575704 34.17013758 C263.84696863 34.19105758 271.36818495 34.20988703 278.8894043 34.2277832 C279.57672707 34.22942139 280.26404984 34.23105957 280.97220058 34.23274739 C292.09130979 34.25898906 303.2104223 34.27765687 314.32954931 34.29437511 C325.76328259 34.31184293 337.19693883 34.34092739 348.6306234 34.37926447 C355.04287 34.40028776 361.45502479 34.41578509 367.86730766 34.41807175 C373.90594843 34.42022762 379.94439822 34.43619272 385.98298073 34.46246147 C388.19113485 34.46962078 390.39931219 34.47177192 392.60747528 34.46835899 C411.52595646 34.44380406 428.71990788 35.05728253 442.95703125 49.02270508 C449.87202746 58.02200865 452.04368468 65.30712383 451.91532898 76.60427856 C451.92153865 77.96030642 451.93036468 79.31632434 451.94155437 80.67232025 C451.96451504 84.37013398 451.95043044 88.06699067 451.92984521 91.76478362 C451.91414229 95.76348815 451.93316301 99.76205388 451.94764709 103.76074219 C451.97042179 111.5823351 451.96102844 119.40356965 451.94014623 127.22515525 C451.92383614 133.5830611 451.91966905 139.94086943 451.92411232 146.29879379 C451.924743 147.20502338 451.92537367 148.11125298 451.92602346 149.04494407 C451.92736956 150.88613164 451.92874913 152.72731918 451.93016181 154.5685067 C451.94208625 171.81526685 451.9180632 189.0618309 451.88114373 206.30854641 C451.85024218 221.09858926 451.84788632 235.88840658 451.86694336 250.6784668 C451.88906704 267.86823804 451.89519 285.05788296 451.87462074 302.24766052 C451.87245787 304.08131463 451.87030877 305.91496875 451.8681736 307.74862289 C451.86710723 308.65073979 451.86604087 309.55285668 451.86494219 310.48231045 C451.85847965 316.83165609 451.86323085 323.18093658 451.8721981 329.53027725 C451.88274524 337.2691948 451.87519572 345.00784806 451.84474232 352.74671687 C451.82963862 356.69326255 451.82241742 360.63939145 451.83693314 364.58594894 C451.84999341 368.20201362 451.83978455 371.81725439 451.8113744 375.43322419 C451.8021669 377.35369566 451.81735065 379.27423686 451.83353537 381.19466221 C451.69736587 392.69904273 447.26389137 399.37364185 439.578125 407.65161133 C436.12303866 410.84993842 432.42408633 412.95174254 428.16015625 414.88989258 C427.50015625 415.21989258 426.84015625 415.54989258 426.16015625 415.88989258 C423.78731006 415.99072229 421.44361306 416.03098068 419.07035065 416.02690697 C418.3281545 416.02955879 417.58595836 416.03221062 416.82127142 416.03494281 C414.30844741 416.04266545 411.79567202 416.04319611 409.28283691 416.04379272 C407.47332461 416.04780542 405.6638132 416.05224331 403.85430288 416.05707228 C398.86143589 416.06906555 393.86857858 416.07469261 388.8757 416.07925344 C383.4985274 416.08519925 378.12136643 416.09681175 372.74420166 416.10754395 C359.74673053 416.1320933 346.74925554 416.14669979 333.75176835 416.15960401 C330.08190209 416.16331441 326.41203621 416.16728778 322.74217033 416.17135668 C299.96391298 416.19659409 277.18565504 416.21865224 254.40738678 416.23108482 C249.128362 416.23401464 243.84933724 416.23697628 238.5703125 416.23999023 C237.25819611 416.24073629 235.94607972 416.24148234 234.59420222 416.24225099 C213.33910511 416.25490432 192.08409167 416.28812534 170.82903367 416.32979207 C149.01742215 416.37219995 127.20585345 416.39577864 105.3942008 416.40100539 C93.14358758 416.40442104 80.89310503 416.41619434 68.64253235 416.44910812 C58.20879246 416.47709414 47.77521001 416.48811433 37.34143549 416.47691266 C32.01765639 416.47172215 26.69420707 416.47463859 21.37047577 416.4993782 C16.49459895 416.52184742 11.61928926 416.5211487 6.74340266 416.50217433 C4.98151182 416.49937106 3.21958272 416.50499105 1.45775348 416.51998727 C-9.39009126 416.60665914 -17.43204553 415.69574124 -26.35546875 409.00317383 C-32.8873186 402.22123063 -38.95451852 394.61594143 -38.97965145 384.97418308 C-38.98534269 383.70554529 -38.99103393 382.43690749 -38.99689764 381.12982613 C-38.99819041 379.70874831 -38.99937841 378.28767039 -39.00047302 376.86659241 C-39.00520161 375.36715243 -39.01035219 373.86771374 -39.01589066 372.36827654 C-39.02982831 368.23246046 -39.03738929 364.09665321 -39.04386365 359.9608196 C-39.05022579 356.41704146 -39.06029723 352.87327788 -39.07042431 349.32950879 C-39.10378527 337.65008635 -39.12527885 325.97065505 -39.14362416 314.29120055 C-39.14841783 311.25003045 -39.15340133 308.20886071 -39.15842938 305.16769099 C-39.18940413 286.28689857 -39.21609324 267.40610311 -39.23284817 248.5252924 C-39.23679776 244.14967404 -39.24080074 239.77405574 -39.24487305 235.3984375 C-39.24588141 234.31087953 -39.24688977 233.22332155 -39.24792869 232.10280728 C-39.26492882 214.49224453 -39.30602843 196.88182248 -39.35689604 179.2713284 C-39.40868154 161.19440401 -39.43779187 143.11755193 -39.44504505 125.04055399 C-39.44970665 114.88970295 -39.46445075 104.73908212 -39.50478935 94.58830452 C-39.53910999 85.94126969 -39.55302053 77.29450657 -39.54036521 68.64740754 C-39.5345427 64.23680515 -39.53837305 59.82677725 -39.56853485 55.41626167 C-39.59595537 51.37350586 -39.59535586 47.33173107 -39.5730244 43.28895288 C-39.56980951 41.83120773 -39.57662292 40.37339621 -39.59482162 38.91576112 C-39.7278965 27.5631893 -37.25741516 19.70250919 -29.71484375 11.13989258 C-20.63694336 2.89732058 -12.13796379 -0.15553455 0 0 Z " fill="#ABDF73" transform="translate(49.83984375,55.110107421875)"/>
<path d="M0 0 C1.34190854 -0.00787097 2.68380232 -0.01872801 4.02566528 -0.03230286 C7.63358102 -0.05968417 11.24004291 -0.04360595 14.84791946 -0.01745439 C18.64594762 0.00418123 22.44388462 -0.00954486 26.24194336 -0.01774597 C32.61692993 -0.02587723 38.99134066 -0.00537205 45.36621094 0.03222656 C52.70789671 0.07515476 60.04845385 0.07161401 67.39018536 0.04335898 C74.48952055 0.017211 81.58844134 0.02520051 88.68777466 0.04805946 C91.69235855 0.05709558 94.69657322 0.0542984 97.70114136 0.0415554 C101.24759412 0.02798879 104.79272945 0.04457126 108.33898544 0.08319283 C110.24020038 0.09707144 112.14155997 0.08197862 114.04275513 0.06561279 C125.44358909 0.24605302 133.94007259 4.90235963 142.97265625 11.51489258 C143.83068848 12.13678467 143.83068848 12.13678467 144.70605469 12.77124023 C148.57408975 15.60884753 152.28163105 18.61497996 155.9777832 21.67138672 C166.6334768 30.45846342 175.62769308 34.04476 189.47483826 34.02792358 C190.41661661 34.03074486 191.35839496 34.03356614 192.32871205 34.03647292 C195.48664644 34.04481024 198.64454573 34.04615646 201.80249023 34.04760742 C204.06619872 34.05227643 206.32990626 34.05742014 208.59361267 34.06300354 C213.47118987 34.07428261 218.34876097 34.08271787 223.22634697 34.08912277 C230.9471501 34.09981073 238.66790953 34.1200592 246.38868713 34.14224243 C249.03340428 34.14969765 251.67812149 34.15712655 254.32283878 34.1645298 C255.31428332 34.16730565 255.31428332 34.16730565 256.32575704 34.17013758 C263.84696863 34.19105758 271.36818495 34.20988703 278.8894043 34.2277832 C279.57672707 34.22942139 280.26404984 34.23105957 280.97220058 34.23274739 C292.09130979 34.25898906 303.2104223 34.27765687 314.32954931 34.29437511 C325.76328259 34.31184293 337.19693883 34.34092739 348.6306234 34.37926447 C355.04287 34.40028776 361.45502479 34.41578509 367.86730766 34.41807175 C373.90594843 34.42022762 379.94439822 34.43619272 385.98298073 34.46246147 C388.19113485 34.46962078 390.39931219 34.47177192 392.60747528 34.46835899 C411.52595646 34.44380406 428.71990788 35.05728253 442.95703125 49.02270508 C449.87202746 58.02200865 452.04368468 65.30712383 451.91532898 76.60427856 C451.92153865 77.96030642 451.93036468 79.31632434 451.94155437 80.67232025 C451.96451504 84.37013398 451.95043044 88.06699067 451.92984521 91.76478362 C451.91414229 95.76348815 451.93316301 99.76205388 451.94764709 103.76074219 C451.97042179 111.5823351 451.96102844 119.40356965 451.94014623 127.22515525 C451.92383614 133.5830611 451.91966905 139.94086943 451.92411232 146.29879379 C451.924743 147.20502338 451.92537367 148.11125298 451.92602346 149.04494407 C451.92736956 150.88613164 451.92874913 152.72731918 451.93016181 154.5685067 C451.94208625 171.81526685 451.9180632 189.0618309 451.88114373 206.30854641 C451.85024218 221.09858926 451.84788632 235.88840658 451.86694336 250.6784668 C451.88906704 267.86823804 451.89519 285.05788296 451.87462074 302.24766052 C451.87245787 304.08131463 451.87030877 305.91496875 451.8681736 307.74862289 C451.86710723 308.65073979 451.86604087 309.55285668 451.86494219 310.48231045 C451.85847965 316.83165609 451.86323085 323.18093658 451.8721981 329.53027725 C451.88274524 337.2691948 451.87519572 345.00784806 451.84474232 352.74671687 C451.82963862 356.69326255 451.82241742 360.63939145 451.83693314 364.58594894 C451.84999341 368.20201362 451.83978455 371.81725439 451.8113744 375.43322419 C451.8021669 377.35369566 451.81735065 379.27423686 451.83353537 381.19466221 C451.69736587 392.69904273 447.26389137 399.37364185 439.578125 407.65161133 C436.12303866 410.84993842 432.42408633 412.95174254 428.16015625 414.88989258 C427.50015625 415.21989258 426.84015625 415.54989258 426.16015625 415.88989258 C423.78731006 415.99072229 421.44361306 416.03098068 419.07035065 416.02690697 C418.3281545 416.02955879 417.58595836 416.03221062 416.82127142 416.03494281 C414.30844741 416.04266545 411.79567202 416.04319611 409.28283691 416.04379272 C407.47332461 416.04780542 405.6638132 416.05224331 403.85430288 416.05707228 C398.86143589 416.06906555 393.86857858 416.07469261 388.8757 416.07925344 C383.4985274 416.08519925 378.12136643 416.09681175 372.74420166 416.10754395 C359.74673053 416.1320933 346.74925554 416.14669979 333.75176835 416.15960401 C330.08190209 416.16331441 326.41203621 416.16728778 322.74217033 416.17135668 C299.96391298 416.19659409 277.18565504 416.21865224 254.40738678 416.23108482 C249.128362 416.23401464 243.84933724 416.23697628 238.5703125 416.23999023 C237.25819611 416.24073629 235.94607972 416.24148234 234.59420222 416.24225099 C213.33910511 416.25490432 192.08409167 416.28812534 170.82903367 416.32979207 C149.01742215 416.37219995 127.20585345 416.39577864 105.3942008 416.40100539 C93.14358758 416.40442104 80.89310503 416.41619434 68.64253235 416.44910812 C58.20879246 416.47709414 47.77521001 416.48811433 37.34143549 416.47691266 C32.01765639 416.47172215 26.69420707 416.47463859 21.37047577 416.4993782 C16.49459895 416.52184742 11.61928926 416.5211487 6.74340266 416.50217433 C4.98151182 416.49937106 3.21958272 416.50499105 1.45775348 416.51998727 C-9.39009126 416.60665914 -17.43204553 415.69574124 -26.35546875 409.00317383 C-32.8873186 402.22123063 -38.95451852 394.61594143 -38.97965145 384.97418308 C-38.98534269 383.70554529 -38.99103393 382.43690749 -38.99689764 381.12982613 C-38.99819041 379.70874831 -38.99937841 378.28767039 -39.00047302 376.86659241 C-39.00520161 375.36715243 -39.01035219 373.86771374 -39.01589066 372.36827654 C-39.02982831 368.23246046 -39.03738929 364.09665321 -39.04386365 359.9608196 C-39.05022579 356.41704146 -39.06029723 352.87327788 -39.07042431 349.32950879 C-39.10378527 337.65008635 -39.12527885 325.97065505 -39.14362416 314.29120055 C-39.14841783 311.25003045 -39.15340133 308.20886071 -39.15842938 305.16769099 C-39.18940413 286.28689857 -39.21609324 267.40610311 -39.23284817 248.5252924 C-39.23679776 244.14967404 -39.24080074 239.77405574 -39.24487305 235.3984375 C-39.24588141 234.31087953 -39.24688977 233.22332155 -39.24792869 232.10280728 C-39.26492882 214.49224453 -39.30602843 196.88182248 -39.35689604 179.2713284 C-39.40868154 161.19440401 -39.43779187 143.11755193 -39.44504505 125.04055399 C-39.44970665 114.88970295 -39.46445075 104.73908212 -39.50478935 94.58830452 C-39.53910999 85.94126969 -39.55302053 77.29450657 -39.54036521 68.64740754 C-39.5345427 64.23680515 -39.53837305 59.82677725 -39.56853485 55.41626167 C-39.59595537 51.37350586 -39.59535586 47.33173107 -39.5730244 43.28895288 C-39.56980951 41.83120773 -39.57662292 40.37339621 -39.59482162 38.91576112 C-39.7278965 27.5631893 -37.25741516 19.70250919 -29.71484375 11.13989258 C-20.63694336 2.89732058 -12.13796379 -0.15553455 0 0 Z M-21.5625 18.99536133 C-28.01366607 28.20451977 -29.2799542 35.90362809 -29.2006073 46.96240234 C-29.20317057 48.27189095 -29.20573385 49.58137955 -29.2083748 50.93054962 C-29.21505897 54.54967759 -29.20311588 58.16853744 -29.18804061 61.78763127 C-29.17505448 65.69618396 -29.17947153 69.6047222 -29.18174744 73.51329041 C-29.18331854 80.27997402 -29.17392636 87.04657068 -29.15703392 93.81323242 C-29.13262643 103.59660904 -29.12483686 113.37994372 -29.12106995 123.16334748 C-29.11450821 139.03722618 -29.09455458 154.91105855 -29.06616211 170.78491211 C-29.03861436 186.20255302 -29.01741869 201.62018128 -29.00463867 217.0378418 C-29.00383468 217.99828128 -29.00303069 218.95872077 -29.00220233 219.94826448 C-28.99596386 227.45981639 -28.99009316 234.97136859 -28.98433864 242.48292089 C-28.95605062 279.2852873 -28.89569265 316.08753773 -28.83984375 352.88989258 C40.46015625 352.88989258 109.76015625 352.88989258 181.16015625 352.88989258 C181.16015625 352.22989258 181.16015625 351.56989258 181.16015625 350.88989258 C172.25015625 345.93989258 172.25015625 345.93989258 163.16015625 340.88989258 C163.16015625 340.22989258 163.16015625 339.56989258 163.16015625 338.88989258 C165.0316032 338.06924189 166.90749961 337.25873418 168.78515625 336.45239258 C170.35136719 335.77370117 170.35136719 335.77370117 171.94921875 335.08129883 C179.5990044 332.24287471 179.5990044 332.24287471 183.765625 333.96972656 C184.61769531 334.51959229 185.46976563 335.06945801 186.34765625 335.63598633 C187.29382813 336.22573242 188.24 336.81547852 189.21484375 337.4230957 C190.67277344 338.36572266 190.67277344 338.36572266 192.16015625 339.32739258 C194.08990806 340.56739888 196.02721274 341.79574675 197.97265625 343.01098633 C198.82472656 343.56197998 199.67679688 344.11297363 200.5546875 344.68066406 C203.69733048 346.13920142 205.7282462 346.25496517 209.16015625 345.88989258 C211.40937599 345.06468558 211.40937599 345.06468558 213.4609375 343.75708008 C214.25991455 343.28802246 215.0588916 342.81896484 215.88208008 342.33569336 C217.16441528 341.55814697 217.16441528 341.55814697 218.47265625 340.76489258 C220.35723057 339.65408723 222.24268467 338.54477347 224.12890625 337.43676758 C225.60810547 336.56181641 225.60810547 336.56181641 227.1171875 335.66918945 C232.19015805 332.70290179 237.33445645 329.86614796 242.47265625 327.01489258 C251.82177259 321.80509066 261.07856614 316.45393329 270.30249023 311.02612305 C278.23487817 306.37907841 286.2730202 301.94798883 294.38354492 297.61987305 C295.24568604 297.15726074 296.10782715 296.69464844 296.99609375 296.21801758 C297.7545459 295.81486328 298.51299805 295.41170898 299.29443359 294.99633789 C301.30998736 293.90507053 301.30998736 293.90507053 303.16015625 291.88989258 C303.48305783 289.90289663 303.48305783 289.90289663 303.46122742 287.58966064 C303.48486107 286.23545013 303.48486107 286.23545013 303.50897217 284.85388184 C303.51592102 283.8606189 303.52286987 282.86735596 303.5300293 281.84399414 C303.55215233 280.27793427 303.55215233 280.27793427 303.57472229 278.68023682 C303.61936665 275.21367388 303.6475009 271.74727972 303.671875 268.28051758 C303.6812742 267.0983239 303.69067341 265.91613022 303.70035744 264.69811249 C303.74797478 258.44076645 303.78164136 252.18350495 303.80541992 245.92602539 C303.83313776 239.45771693 303.91231001 232.99109852 304.00296307 226.5234108 C304.06272817 221.55456016 304.08268149 216.58611332 304.09192848 211.61693573 C304.10352734 209.23260011 304.13041989 206.84828821 304.17285728 204.46430206 C304.22875947 201.12593733 304.22800269 197.79206929 304.21362305 194.45336914 C304.25744614 192.97562012 304.25744614 192.97562012 304.30215454 191.46801758 C304.21625676 186.14721597 304.21625676 186.14721597 301.19499397 181.97005463 C298.90756878 180.42499314 296.62581273 179.12605574 294.16015625 177.88989258 C293.13599609 177.2840332 292.11183594 176.67817383 291.05664062 176.05395508 C289.66928711 175.29211914 289.66928711 175.29211914 288.25390625 174.51489258 C287.19316895 173.9294165 286.13243164 173.34394043 285.03955078 172.74072266 C283.92435059 172.12994873 282.80915039 171.5191748 281.66015625 170.88989258 C280.46962222 170.23372006 279.27936034 169.57705356 278.08935547 168.91992188 C276.25709654 167.90818668 274.42470045 166.89671118 272.59152222 165.88664246 C258.61541241 158.18582199 244.70506865 150.36466906 230.84765625 142.45239258 C229.98406494 141.9606958 229.12047363 141.46899902 228.23071289 140.96240234 C224.59135497 138.88383536 220.96820818 136.79178562 217.40234375 134.58911133 C216.35304688 133.94586914 215.30375 133.30262695 214.22265625 132.63989258 C213.36800781 132.09848633 212.51335937 131.55708008 211.6328125 130.99926758 C208.34289456 129.52322225 206.76547446 129.31996523 203.16015625 129.88989258 C199.52805223 131.52847703 196.14440704 133.54189692 192.72265625 135.57739258 C190.64862146 136.78083467 188.57439751 137.98395082 186.5 139.18676758 C185.44409668 139.80487305 184.38819336 140.42297852 183.30029297 141.05981445 C178.48899258 143.86385019 173.63729673 146.59485364 168.78515625 149.32739258 C167.84365723 149.86001709 166.9021582 150.3926416 165.93212891 150.94140625 C160.94043756 153.7650191 155.94067097 156.57330636 150.9296875 159.36254883 C140.44190938 165.2023895 129.99651348 171.09751607 119.66015625 177.20239258 C118.7158374 177.75991211 117.77151855 178.31743164 116.79858398 178.8918457 C112.75695557 181.08997746 112.75695557 181.08997746 109.16015625 183.88989258 C109.04528251 185.27978235 108.99840154 186.67537145 108.9793396 188.06987 C108.95776794 189.42201851 108.95776794 189.42201851 108.9357605 190.80148315 C108.92521637 191.79834137 108.91467224 192.79519958 108.90380859 193.82226562 C108.88920593 194.86615952 108.87460327 195.91005341 108.85955811 196.98558044 C108.733497 206.62505884 108.66481613 216.26537473 108.61171532 225.90550518 C108.57592585 232.38748327 108.5225636 238.8682232 108.42626953 245.34960938 C108.33355875 251.60785954 108.28481113 257.86501291 108.26732254 264.1239109 C108.25320739 266.51105708 108.22352117 268.89816359 108.17802048 271.28491783 C108.11740069 274.62810282 108.11328191 277.96692607 108.12255859 281.31054688 C108.09177216 282.29728394 108.06098572 283.284021 108.02926636 284.30065918 C108.10529469 289.63279489 108.10529469 289.63279489 111.13465691 293.81636524 C113.41914457 295.35849804 115.69722144 296.65752894 118.16015625 297.88989258 C119.08747559 298.44265869 120.01479492 298.9954248 120.97021484 299.56494141 C121.74187988 299.98799561 122.51354492 300.4110498 123.30859375 300.84692383 C124.16839844 301.31936523 125.02820313 301.79180664 125.9140625 302.27856445 C127.21150391 302.98335938 127.21150391 302.98335938 128.53515625 303.70239258 C129.42332031 304.1915918 130.31148437 304.68079102 131.2265625 305.18481445 C138.07703642 308.93132931 143.24711465 310.77595633 151.16015625 309.88989258 C154.51136548 308.27413098 156.44559882 307.14091021 158.29647827 303.90046692 C159.58339423 299.41458648 159.46888701 295.05362517 159.47900391 290.40820312 C159.48904953 289.35408737 159.49909515 288.29997162 159.50944519 287.21391296 C159.54029956 283.73481789 159.55731883 280.25579985 159.57421875 276.77661133 C159.59292856 274.36236406 159.61250183 271.94812333 159.63290405 269.53388977 C159.6842509 263.18325664 159.72386312 256.8326023 159.76104736 250.48187256 C159.80107089 243.99998721 159.8521708 237.51819028 159.90234375 231.03637695 C159.99913334 218.32094425 160.08352856 205.60546165 160.16015625 192.88989258 C165.44015625 192.55989258 170.72015625 192.22989258 176.16015625 191.88989258 C176.12207973 206.72874173 176.0629497 221.56734812 175.97625351 236.40599728 C175.93651922 243.2965475 175.90409841 250.18698444 175.88916016 257.07763672 C175.87471705 263.73026567 175.83954172 270.38257921 175.79184723 277.0350666 C175.77703556 279.57027696 175.76911536 282.10553746 175.7682724 284.64079094 C175.7659005 288.19808051 175.73880019 291.75440136 175.70605469 295.31152344 C175.71360023 296.87598961 175.71360023 296.87598961 175.72129822 298.47206116 C175.60503744 306.6613135 173.42474661 312.35979584 169.03515625 319.20239258 C162.48241881 325.32777758 155.00443986 326.56272175 146.24121094 326.41748047 C131.65021056 325.68181405 118.81170991 316.59728126 106.58251953 309.3190918 C104.67955472 308.19633872 102.7367138 307.14114539 100.78125 306.11254883 C96.30070922 302.31310367 93.70152573 297.00198698 92.69491196 291.21540833 C92.51528196 288.34350917 92.48393337 285.50942944 92.51318359 282.63208008 C92.504422 281.55428284 92.4956604 280.4764856 92.4866333 279.36602783 C92.46477185 275.83189673 92.47914609 272.29903461 92.49609375 268.76489258 C92.49272184 266.29207115 92.48786611 263.81925133 92.4815979 261.34643555 C92.47424446 256.17521312 92.48488352 251.00442385 92.50830078 245.83325195 C92.53678664 239.22249875 92.52037459 232.61276069 92.49043846 226.00204468 C92.47232469 220.89917425 92.47814242 215.79654237 92.49107742 210.69366455 C92.49440011 208.25693642 92.49036464 205.82018626 92.47867966 203.38348389 C92.46590445 199.97097848 92.48544373 196.56009077 92.51318359 193.14770508 C92.49800186 191.65427582 92.49800186 191.65427582 92.48251343 190.13067627 C92.58771286 183.10440637 94.30828608 177.79721281 98.16015625 171.88989258 C100.61328125 169.65551758 100.61328125 169.65551758 103.41015625 168.13989258 C104.55484375 167.49793945 105.69953125 166.85598633 106.87890625 166.19458008 C107.54277344 165.83847656 108.20664063 165.48237305 108.890625 165.11547852 C111.51018686 163.70087003 114.10047423 162.23908846 116.69140625 160.77270508 C122.0568578 157.74151749 127.4381431 154.73971807 132.82421875 151.74536133 C138.19094488 148.76035558 143.55120281 145.76382536 148.91015625 142.76489258 C149.94422607 142.18634521 150.9782959 141.60779785 152.04370117 141.01171875 C158.7887502 137.2326834 165.51303721 133.41894695 172.22265625 129.57739258 C173.07432373 129.09020752 173.92599121 128.60302246 174.8034668 128.10107422 C179.67895895 125.31167252 179.67895895 125.31167252 184.55078125 122.51586914 C186.77221068 121.24022447 188.99699553 119.97063612 191.22265625 118.70239258 C191.87177979 118.32751709 192.52090332 117.9526416 193.18969727 117.56640625 C199.02773084 114.25267348 204.42114019 112.65872618 211.16015625 113.88989258 C222.11099752 118.27274075 232.28060097 124.7272882 242.46875 130.61645508 C248.50063146 134.09845265 254.57799622 137.49670716 260.66015625 140.88989258 C270.17925408 146.20825198 279.67598864 151.56216796 289.12109375 157.01098633 C292.55929143 158.99033111 296.02314793 160.91098836 299.51171875 162.80004883 C300.37684082 163.27740479 301.24196289 163.75476074 302.13330078 164.24658203 C303.75836173 165.14264221 305.3916645 166.02399834 307.03466797 166.88671875 C308.13319092 167.49930542 308.13319092 167.49930542 309.25390625 168.12426758 C309.89005859 168.46683594 310.52621094 168.8094043 311.18164062 169.16235352 C314.98939972 172.4870948 317.7220265 176.44035654 318.62220001 181.47312927 C318.79424302 184.47353636 318.81314046 187.43796197 318.77539062 190.44311523 C318.78093964 191.57581345 318.78648865 192.70851166 318.79220581 193.87553406 C318.80397167 197.60211102 318.77975863 201.32746402 318.75390625 205.05395508 C318.75219451 207.65131576 318.75226147 210.24867817 318.75402832 212.84603882 C318.75237688 218.28141157 318.7342941 223.71634213 318.70214844 229.15161133 C318.66522397 235.42518266 318.65647931 241.69829769 318.66344595 247.97196352 C318.6697613 254.02366128 318.6587651 260.07516333 318.63948059 266.1268425 C318.6324529 268.69525771 318.62932578 271.26368667 318.63017273 273.83211136 C318.62837442 277.42014677 318.60698943 281.00753545 318.58007812 284.59545898 C318.58300873 285.65535538 318.58593933 286.71525177 318.58895874 287.80726624 C318.52526343 293.31346321 318.13487805 297.08465911 315.16015625 301.88989258 C314.83015625 302.87989258 314.50015625 303.86989258 314.16015625 304.88989258 C312.37670898 305.92749023 312.37670898 305.92749023 310.16015625 306.88989258 C298.42435663 313.13060181 286.81946698 319.60809734 275.29614258 326.23144531 C268.19375304 330.31074944 261.05828241 334.32881586 253.91015625 338.32739258 C252.35687622 339.19630127 252.35687622 339.19630127 250.7722168 340.08276367 C249.78133057 340.63657715 248.79044434 341.19039063 247.76953125 341.76098633 C246.82400391 342.29191895 245.87847656 342.82285156 244.90429688 343.36987305 C243.10161369 344.36840557 241.28790499 345.34733499 239.46289062 346.30444336 C238.64626953 346.73611816 237.82964844 347.16779297 236.98828125 347.61254883 C235.91175293 348.16761108 235.91175293 348.16761108 234.81347656 348.73388672 C232.83454657 349.87292696 232.83454657 349.87292696 232.16015625 352.88989258 C301.13015625 352.88989258 370.10015625 352.88989258 441.16015625 352.88989258 C441.30585785 303.06178866 441.30585785 303.06178866 441.40429688 253.23364258 C441.41408572 246.51098571 441.42418798 239.78832943 441.43481445 233.06567383 C441.4361332 232.22313915 441.43745194 231.38060447 441.43881065 230.51253843 C441.46053647 216.9238363 441.49994405 203.33524033 441.54592023 189.74660107 C441.59273573 175.79315663 441.6204624 161.83976763 441.63059872 147.88624787 C441.63744735 139.28135974 441.65905043 130.67677161 441.69973858 122.07197586 C441.72623991 116.16529349 441.7341406 110.25876543 441.72766314 104.35202798 C441.72447153 100.94777173 441.7320053 97.54445836 441.75618362 94.14022446 C441.78117462 90.43932297 441.77503758 86.73969007 441.76142883 83.03875732 C441.77599304 81.976464 441.79055725 80.91417068 441.80556279 79.81968665 C441.71849706 71.01965702 439.25943895 62.64061559 433.91015625 55.51489258 C425.25068268 47.24903145 416.25524648 43.41841031 404.37081909 43.51135254 C402.93593067 43.50455734 402.93593067 43.50455734 401.4720546 43.49762487 C398.28184786 43.48604191 395.09206374 43.4956316 391.90185547 43.50512695 C389.60814647 43.50101983 387.31443955 43.49555813 385.02073669 43.48884583 C380.08752022 43.47713178 375.15441559 43.47463273 370.22118759 43.47920227 C362.41189637 43.48602061 354.60275181 43.47012766 346.79348755 43.45080566 C335.83660922 43.42580415 324.87975565 43.40906131 313.92285156 43.40112305 C312.88095439 43.40036228 312.88095439 43.40036228 311.8180088 43.39958614 C306.89039146 43.39606065 301.96277391 43.39293164 297.03515625 43.38989258 C291.41666646 43.38642547 285.79817686 43.38277537 280.1796875 43.37866211 C279.48776097 43.37815949 278.79583444 43.37765688 278.08294044 43.37713903 C266.51352492 43.36837123 254.94416005 43.34776419 243.37477696 43.31918001 C235.62119863 43.30087667 227.8677884 43.29691282 220.11419368 43.3041153 C215.27664585 43.30564341 210.43918113 43.29481346 205.60165596 43.28073692 C203.36930341 43.2767538 201.1369348 43.27782568 198.9045887 43.28450966 C177.23806609 43.34436527 162.1655239 40.61612456 145.06542969 26.64404297 C140.47388034 22.90168713 135.80748453 19.31312628 130.97265625 15.88989258 C130.36848877 15.44556885 129.76432129 15.00124512 129.1418457 14.54345703 C120.17147434 8.3005554 110.34835808 6.28495823 99.58349609 6.37231445 C98.49565323 6.36530518 97.40781036 6.3582959 96.28700256 6.35107422 C92.73143127 6.33363041 89.17667153 6.34506729 85.62109375 6.35864258 C83.12871144 6.35594416 80.63633015 6.35205883 78.14395142 6.3470459 C72.93766185 6.34116959 67.73164799 6.34965526 62.52539062 6.3684082 C55.86990656 6.39122014 49.21533559 6.37804837 42.55983543 6.35411835 C37.41925238 6.33963036 32.27882093 6.34427982 27.13823318 6.35462952 C24.68475899 6.35728725 22.23127078 6.35406082 19.77781296 6.3447113 C16.34418253 6.33449395 12.91158157 6.35011959 9.47802734 6.37231445 C8.47619919 6.36421753 7.47437103 6.35612061 6.44218445 6.34777832 C-4.40387089 6.47693303 -14.5689025 10.44763105 -21.5625 18.99536133 Z " fill="#A5D770" transform="translate(49.83984375,55.110107421875)"/>
<path d="M0 0 C1.08404617 -0.00686325 2.16809235 -0.0137265 3.2849884 -0.02079773 C6.85256216 -0.03903062 10.41969453 -0.03523207 13.98730469 -0.02954102 C16.48061261 -0.03410539 18.97391927 -0.03941172 21.46722412 -0.04542542 C27.35655793 -0.05549138 33.24573596 -0.04940612 39.13506293 -0.03817183 C45.13619223 -0.02897005 51.13690618 -0.05361603 57.13798904 -0.07990932 C62.28722451 -0.09832088 67.43633403 -0.09796866 72.58559418 -0.0922718 C75.04300428 -0.09211911 77.50042321 -0.09812035 79.95780182 -0.11056328 C83.40579267 -0.12555975 86.85281908 -0.11473081 90.30078125 -0.09765625 C91.30170303 -0.10732422 92.30262482 -0.11699219 93.33387756 -0.12695312 C103.01454973 -0.02734273 112.1564223 2.51100815 120.03417969 8.27905273 C120.55439697 8.65271973 121.07461426 9.02638672 121.6105957 9.41137695 C124.89402047 11.80200319 128.07062341 14.31959596 131.24121094 16.85717773 C146.7210421 29.22846954 159.70561919 36.7734233 180.07273865 36.64888 C181.51358868 36.65227686 181.51358868 36.65227686 182.98354679 36.65574235 C186.16903233 36.66099564 189.35431936 36.65224197 192.53979492 36.64355469 C194.83718935 36.64466874 197.13458349 36.64672838 199.43197632 36.6496582 C204.36349007 36.65436636 209.29495615 36.65327501 214.22646904 36.64788246 C222.03122747 36.64025098 229.83589475 36.65095233 237.64064026 36.66508484 C240.31755343 36.66963063 242.99446661 36.67413529 245.67138004 36.67852306 C246.34017315 36.67962121 247.00896626 36.68071935 247.69802583 36.68185076 C255.29290262 36.6939992 262.88778207 36.70156958 270.48266602 36.70751953 C271.17609225 36.70806759 271.86951847 36.70861565 272.58395762 36.70918032 C283.82368222 36.7176417 295.06338287 36.71429893 306.30310761 36.70836518 C317.87037901 36.7027375 329.43750934 36.71663353 341.00474697 36.74591798 C348.75646609 36.76453804 356.50776551 36.76128652 364.2594775 36.74175036 C369.08933305 36.7348518 373.91896271 36.74885867 378.74877548 36.76869965 C380.98035872 36.77373164 383.21198038 36.77030179 385.44353294 36.75756645 C398.41274129 36.68883909 409.3920766 36.69496116 420.28417969 44.65405273 C428.01767214 52.75580673 432.44245687 61.60058855 432.20214844 72.84155273 C432.19790359 73.60709473 432.19365875 74.37263672 432.18928528 75.16137695 C432.17266297 77.5759796 432.13504475 79.98970785 432.09667969 82.40405273 C432.08161146 84.05378015 432.06792683 85.70352083 432.05566406 87.35327148 C432.02281386 91.37052893 431.97114941 95.38714326 431.90917969 99.40405273 C431.57917969 99.40405273 431.24917969 99.40405273 430.90917969 99.40405273 C430.68230469 98.10467773 430.45542969 96.80530273 430.22167969 95.46655273 C427.95086385 85.3118481 422.11445884 78.29332714 413.66308594 72.47045898 C407.09690517 68.47810409 399.2488804 68.27974159 391.76636028 68.27541828 C391.07917637 68.27366524 390.39199246 68.27191221 389.68398479 68.27010605 C387.38839842 68.26546551 385.09287593 68.26790651 382.79728699 68.27033997 C381.13195266 68.26847102 379.46661876 68.26616998 377.80128556 68.26347464 C373.23016631 68.25736068 368.65906536 68.25748976 364.08794296 68.25866902 C359.15599211 68.25887313 354.22404712 68.25335332 349.292099 68.24861145 C339.63156159 68.24030665 329.97103029 68.23755669 320.31048962 68.23699907 C312.45795668 68.23652385 304.60542575 68.23446879 296.75289345 68.23129845 C274.48854462 68.22249249 252.22420062 68.217879 229.95985004 68.21862892 C228.1596083 68.21868885 228.1596083 68.21868885 226.32299805 68.21875 C225.12137129 68.21879088 223.91974454 68.21883176 222.68170486 68.21887388 C203.20525302 68.21928038 183.7288205 68.20970972 164.25237425 68.19561163 C144.25314352 68.18124937 124.2539222 68.17434136 104.25468618 68.17520541 C93.0270079 68.17553742 81.79934989 68.17278847 70.57167625 68.16202736 C61.01277698 68.15292436 51.45390716 68.15074549 41.89500543 68.15753678 C37.01888069 68.16080293 32.14281248 68.1608552 27.26669312 68.15218353 C22.80011042 68.14432193 18.33362911 68.14574653 13.8670489 68.15446766 C12.25403525 68.15600339 10.64101406 68.15418376 9.02800932 68.14860759 C-6.05408745 68.09993538 -16.40051807 69.10261406 -27.77832031 79.46655273 C-32.60841779 84.41364219 -34.90784966 89.92095898 -37.09082031 96.40405273 C-37.42082031 96.40405273 -37.75082031 96.40405273 -38.09082031 96.40405273 C-38.20730074 87.61493065 -38.29582973 78.82607924 -38.34988117 70.03635025 C-38.37583942 65.95372261 -38.41098039 61.87162775 -38.46801758 57.78930664 C-38.5228359 53.84053149 -38.55234406 49.89226478 -38.56520653 45.94313812 C-38.5743581 44.44578816 -38.59222611 42.94846215 -38.6194706 41.45133209 C-38.80866781 30.61137646 -37.48439176 20.97656229 -30.84082031 12.02905273 C-21.67259154 3.27756163 -12.49617784 -0.0557506 0 0 Z " fill="#96C564" transform="translate(59.0908203125,61.595947265625)"/>
<path d="M0 0 C1.34190854 -0.00787097 2.68380232 -0.01872801 4.02566528 -0.03230286 C7.63358102 -0.05968417 11.24004291 -0.04360595 14.84791946 -0.01745439 C18.64594762 0.00418123 22.44388462 -0.00954486 26.24194336 -0.01774597 C32.61692993 -0.02587723 38.99134066 -0.00537205 45.36621094 0.03222656 C52.70789671 0.07515476 60.04845385 0.07161401 67.39018536 0.04335898 C74.48952055 0.017211 81.58844134 0.02520051 88.68777466 0.04805946 C91.69235855 0.05709558 94.69657322 0.0542984 97.70114136 0.0415554 C101.24759412 0.02798879 104.79272945 0.04457126 108.33898544 0.08319283 C110.24020038 0.09707144 112.14155997 0.08197862 114.04275513 0.06561279 C125.44358909 0.24605302 133.94007259 4.90235963 142.97265625 11.51489258 C143.83068848 12.13678467 143.83068848 12.13678467 144.70605469 12.77124023 C148.57408975 15.60884753 152.28163105 18.61497996 155.9777832 21.67138672 C166.6334768 30.45846342 175.62769308 34.04476 189.47483826 34.02792358 C190.41661661 34.03074486 191.35839496 34.03356614 192.32871205 34.03647292 C195.48664644 34.04481024 198.64454573 34.04615646 201.80249023 34.04760742 C204.06619872 34.05227643 206.32990626 34.05742014 208.59361267 34.06300354 C213.47118987 34.07428261 218.34876097 34.08271787 223.22634697 34.08912277 C230.9471501 34.09981073 238.66790953 34.1200592 246.38868713 34.14224243 C249.03340428 34.14969765 251.67812149 34.15712655 254.32283878 34.1645298 C255.31428332 34.16730565 255.31428332 34.16730565 256.32575704 34.17013758 C263.84696863 34.19105758 271.36818495 34.20988703 278.8894043 34.2277832 C279.57672707 34.22942139 280.26404984 34.23105957 280.97220058 34.23274739 C292.09130979 34.25898906 303.2104223 34.27765687 314.32954931 34.29437511 C325.76328259 34.31184293 337.19693883 34.34092739 348.6306234 34.37926447 C355.04287 34.40028776 361.45502479 34.41578509 367.86730766 34.41807175 C373.90594843 34.42022762 379.94439822 34.43619272 385.98298073 34.46246147 C388.19113485 34.46962078 390.39931219 34.47177192 392.60747528 34.46835899 C411.52595646 34.44380406 428.71990788 35.05728253 442.95703125 49.02270508 C449.87202746 58.02200865 452.04368468 65.30712383 451.91532898 76.60427856 C451.92153865 77.96030642 451.93036468 79.31632434 451.94155437 80.67232025 C451.96451504 84.37013398 451.95043044 88.06699067 451.92984521 91.76478362 C451.91414229 95.76348815 451.93316301 99.76205388 451.94764709 103.76074219 C451.97042179 111.5823351 451.96102844 119.40356965 451.94014623 127.22515525 C451.92383614 133.5830611 451.91966905 139.94086943 451.92411232 146.29879379 C451.924743 147.20502338 451.92537367 148.11125298 451.92602346 149.04494407 C451.92736956 150.88613164 451.92874913 152.72731918 451.93016181 154.5685067 C451.94208625 171.81526685 451.9180632 189.0618309 451.88114373 206.30854641 C451.85024218 221.09858926 451.84788632 235.88840658 451.86694336 250.6784668 C451.88906704 267.86823804 451.89519 285.05788296 451.87462074 302.24766052 C451.87245787 304.08131463 451.87030877 305.91496875 451.8681736 307.74862289 C451.86710723 308.65073979 451.86604087 309.55285668 451.86494219 310.48231045 C451.85847965 316.83165609 451.86323085 323.18093658 451.8721981 329.53027725 C451.88274524 337.2691948 451.87519572 345.00784806 451.84474232 352.74671687 C451.82963862 356.69326255 451.82241742 360.63939145 451.83693314 364.58594894 C451.84999341 368.20201362 451.83978455 371.81725439 451.8113744 375.43322419 C451.8021669 377.35369566 451.81735065 379.27423686 451.83353537 381.19466221 C451.69736587 392.69904273 447.26389137 399.37364185 439.578125 407.65161133 C436.12303866 410.84993842 432.42408633 412.95174254 428.16015625 414.88989258 C427.50015625 415.21989258 426.84015625 415.54989258 426.16015625 415.88989258 C423.78731006 415.99072229 421.44361306 416.03098068 419.07035065 416.02690697 C418.3281545 416.02955879 417.58595836 416.03221062 416.82127142 416.03494281 C414.30844741 416.04266545 411.79567202 416.04319611 409.28283691 416.04379272 C407.47332461 416.04780542 405.6638132 416.05224331 403.85430288 416.05707228 C398.86143589 416.06906555 393.86857858 416.07469261 388.8757 416.07925344 C383.4985274 416.08519925 378.12136643 416.09681175 372.74420166 416.10754395 C359.74673053 416.1320933 346.74925554 416.14669979 333.75176835 416.15960401 C330.08190209 416.16331441 326.41203621 416.16728778 322.74217033 416.17135668 C299.96391298 416.19659409 277.18565504 416.21865224 254.40738678 416.23108482 C249.128362 416.23401464 243.84933724 416.23697628 238.5703125 416.23999023 C237.25819611 416.24073629 235.94607972 416.24148234 234.59420222 416.24225099 C213.33910511 416.25490432 192.08409167 416.28812534 170.82903367 416.32979207 C149.01742215 416.37219995 127.20585345 416.39577864 105.3942008 416.40100539 C93.14358758 416.40442104 80.89310503 416.41619434 68.64253235 416.44910812 C58.20879246 416.47709414 47.77521001 416.48811433 37.34143549 416.47691266 C32.01765639 416.47172215 26.69420707 416.47463859 21.37047577 416.4993782 C16.49459895 416.52184742 11.61928926 416.5211487 6.74340266 416.50217433 C4.98151182 416.49937106 3.21958272 416.50499105 1.45775348 416.51998727 C-9.39009126 416.60665914 -17.43204553 415.69574124 -26.35546875 409.00317383 C-32.8873186 402.22123063 -38.95451852 394.61594143 -38.97965145 384.97418308 C-38.98534269 383.70554529 -38.99103393 382.43690749 -38.99689764 381.12982613 C-38.99819041 379.70874831 -38.99937841 378.28767039 -39.00047302 376.86659241 C-39.00520161 375.36715243 -39.01035219 373.86771374 -39.01589066 372.36827654 C-39.02982831 368.23246046 -39.03738929 364.09665321 -39.04386365 359.9608196 C-39.05022579 356.41704146 -39.06029723 352.87327788 -39.07042431 349.32950879 C-39.10378527 337.65008635 -39.12527885 325.97065505 -39.14362416 314.29120055 C-39.14841783 311.25003045 -39.15340133 308.20886071 -39.15842938 305.16769099 C-39.18940413 286.28689857 -39.21609324 267.40610311 -39.23284817 248.5252924 C-39.23679776 244.14967404 -39.24080074 239.77405574 -39.24487305 235.3984375 C-39.24588141 234.31087953 -39.24688977 233.22332155 -39.24792869 232.10280728 C-39.26492882 214.49224453 -39.30602843 196.88182248 -39.35689604 179.2713284 C-39.40868154 161.19440401 -39.43779187 143.11755193 -39.44504505 125.04055399 C-39.44970665 114.88970295 -39.46445075 104.73908212 -39.50478935 94.58830452 C-39.53910999 85.94126969 -39.55302053 77.29450657 -39.54036521 68.64740754 C-39.5345427 64.23680515 -39.53837305 59.82677725 -39.56853485 55.41626167 C-39.59595537 51.37350586 -39.59535586 47.33173107 -39.5730244 43.28895288 C-39.56980951 41.83120773 -39.57662292 40.37339621 -39.59482162 38.91576112 C-39.7278965 27.5631893 -37.25741516 19.70250919 -29.71484375 11.13989258 C-20.63694336 2.89732058 -12.13796379 -0.15553455 0 0 Z M-21.5625 18.99536133 C-28.18862436 28.45427596 -29.28097316 36.35823648 -29.23425293 47.71685791 C-29.23914659 49.12177191 -29.2453386 50.52668189 -29.25271082 51.93158507 C-29.26907356 55.7783405 -29.26679992 59.62489048 -29.26133585 63.47166848 C-29.25866108 67.62587753 -29.27320592 71.78003237 -29.28543091 75.93421936 C-29.30646901 84.06794388 -29.31102666 92.20159709 -29.30924302 100.3353456 C-29.30793445 106.94881006 -29.31174439 113.5622523 -29.31916809 120.17571259 C-29.32126733 122.08207313 -29.32336494 123.98843368 -29.32546091 125.89479423 C-29.32650444 126.84370787 -29.32754797 127.79262151 -29.32862312 128.77029011 C-29.34751933 146.71093867 -29.34647733 164.65154633 -29.33965379 182.59220073 C-29.33408014 198.9924605 -29.35489727 215.39256397 -29.38801426 231.79278722 C-29.42177673 248.64385681 -29.43691631 265.49485158 -29.43229723 282.34595561 C-29.43005495 291.80197629 -29.43526018 301.25785256 -29.46018982 310.7138443 C-29.4812361 318.76526111 -29.4847621 326.81645434 -29.46589023 334.86788043 C-29.45675242 338.97276253 -29.45552882 343.07722813 -29.47624588 347.18207741 C-29.49503353 350.94640749 -29.49036656 354.70998224 -29.46770006 358.47428426 C-29.46157339 360.46726832 -29.47984389 362.46028239 -29.49923658 364.45318151 C-29.40651446 373.93167017 -27.35738604 382.53912411 -21.58984375 390.26489258 C-10.52132257 400.83029916 0.08660588 402.33627313 14.83441162 402.28430176 C16.54868477 402.28919324 18.26295461 402.29538424 19.97721887 402.30275965 C24.67908111 402.3191498 29.38077557 402.3168431 34.08265638 402.31138468 C39.15711489 402.30871332 44.2315288 402.32324833 49.30596924 402.33547974 C59.24445097 402.356532 69.18287437 402.36107468 79.12137577 402.35929185 C87.20079998 402.35798403 95.28020599 402.3617894 103.35962677 402.36921692 C105.68726102 402.37131613 108.01489528 402.37341373 110.34252954 402.37550974 C112.08035755 402.37707503 112.08035755 402.37707503 113.85329321 402.37867194 C135.76407391 402.39757377 157.67482113 402.3965244 179.5856066 402.38970262 C199.62327583 402.38412819 219.66081716 402.40494844 239.6984565 402.43806309 C260.27856457 402.47180991 280.85861139 402.48696711 301.43874764 402.48234606 C312.99068363 402.48010225 324.54250143 402.48533156 336.09441376 402.51023865 C345.92996046 402.53126462 355.76532419 402.53483088 365.60087845 402.51593906 C370.61710327 402.506789 375.63298704 402.50561594 380.64918518 402.52629471 C385.24615876 402.5450353 389.84251271 402.54046666 394.43946293 402.51774889 C396.09756993 402.5135709 397.75572472 402.5177361 399.41378114 402.53134483 C410.46035341 402.61579686 420.34921204 401.44766972 429.53515625 394.63989258 C438.76937085 384.96595348 441.61526518 375.58475389 441.55456543 362.46759033 C441.56370209 360.60793754 441.56370209 360.60793754 441.57302332 358.71071601 C441.58675342 355.28571633 441.58711636 351.86119804 441.58164835 348.43620729 C441.57897127 344.73598718 441.59352275 341.0358277 441.60574341 337.33563232 C441.62677193 330.09225417 441.63133971 322.84895611 441.62955552 315.60555103 C441.62824645 309.71529309 441.63205947 303.82506008 441.63948059 297.93480682 C441.64157986 296.23627464 441.64367746 294.53774246 441.64577341 292.83921027 C441.64681694 291.99371823 441.64786047 291.14822618 441.64893562 290.27711317 C441.66782803 274.29506274 441.66679103 258.31305822 441.65996629 242.33100125 C441.65439316 227.72519466 441.67520818 213.11956361 441.70832676 198.51379803 C441.74209982 183.50238698 441.75722748 168.49105993 441.75260973 153.4796102 C441.75036849 145.05757247 441.7555574 136.63569691 441.78050232 128.21369171 C441.80156238 121.04244328 441.80506113 113.87144591 441.78620273 106.700187 C441.77707317 103.04489566 441.7758153 99.39007183 441.79655838 95.7348175 C441.81884737 91.7630316 441.80198138 87.79193707 441.78161621 83.82012939 C441.79413406 82.67769217 441.80665191 81.53525494 441.81954908 80.3581984 C441.72051717 71.31588144 439.41070121 62.85640267 433.91015625 55.51489258 C425.25068268 47.24903145 416.25524648 43.41841031 404.37081909 43.51135254 C402.93593067 43.50455734 402.93593067 43.50455734 401.4720546 43.49762487 C398.28184786 43.48604191 395.09206374 43.4956316 391.90185547 43.50512695 C389.60814647 43.50101983 387.31443955 43.49555813 385.02073669 43.48884583 C380.08752022 43.47713178 375.15441559 43.47463273 370.22118759 43.47920227 C362.41189637 43.48602061 354.60275181 43.47012766 346.79348755 43.45080566 C335.83660922 43.42580415 324.87975565 43.40906131 313.92285156 43.40112305 C312.88095439 43.40036228 312.88095439 43.40036228 311.8180088 43.39958614 C306.89039146 43.39606065 301.96277391 43.39293164 297.03515625 43.38989258 C291.41666646 43.38642547 285.79817686 43.38277537 280.1796875 43.37866211 C279.48776097 43.37815949 278.79583444 43.37765688 278.08294044 43.37713903 C266.51352492 43.36837123 254.94416005 43.34776419 243.37477696 43.31918001 C235.62119863 43.30087667 227.8677884 43.29691282 220.11419368 43.3041153 C215.27664585 43.30564341 210.43918113 43.29481346 205.60165596 43.28073692 C203.36930341 43.2767538 201.1369348 43.27782568 198.9045887 43.28450966 C177.23806609 43.34436527 162.1655239 40.61612456 145.06542969 26.64404297 C140.47388034 22.90168713 135.80748453 19.31312628 130.97265625 15.88989258 C130.36848877 15.44556885 129.76432129 15.00124512 129.1418457 14.54345703 C120.17147434 8.3005554 110.34835808 6.28495823 99.58349609 6.37231445 C98.49565323 6.36530518 97.40781036 6.3582959 96.28700256 6.35107422 C92.73143127 6.33363041 89.17667153 6.34506729 85.62109375 6.35864258 C83.12871144 6.35594416 80.63633015 6.35205883 78.14395142 6.3470459 C72.93766185 6.34116959 67.73164799 6.34965526 62.52539062 6.3684082 C55.86990656 6.39122014 49.21533559 6.37804837 42.55983543 6.35411835 C37.41925238 6.33963036 32.27882093 6.34427982 27.13823318 6.35462952 C24.68475899 6.35728725 22.23127078 6.35406082 19.77781296 6.3447113 C16.34418253 6.33449395 12.91158157 6.35011959 9.47802734 6.37231445 C8.47619919 6.36421753 7.47437103 6.35612061 6.44218445 6.34777832 C-4.40387089 6.47693303 -14.5689025 10.44763105 -21.5625 18.99536133 Z " fill="#000000" transform="translate(49.83984375,55.110107421875)"/>
<path d="M0 0 C6.03188146 3.48199758 12.10924622 6.88025208 18.19140625 10.2734375 C27.71206313 15.59266795 37.21076267 20.94669807 46.65625 26.3984375 C50.07940665 28.36940657 53.52962461 30.2764009 57.0078125 32.1484375 C57.86842285 32.62128174 58.7290332 33.09412598 59.61572266 33.58129883 C61.2270042 34.46582884 62.84720122 35.33441804 64.47802734 36.18237305 C70.26947214 39.40062452 73.83903809 43.26242149 76.69140625 49.2734375 C77.49118836 53.1833118 77.48393854 56.95971691 77.42016602 60.94018555 C77.42586105 62.07302979 77.43155609 63.20587402 77.43742371 64.37304688 C77.44848213 68.09439633 77.41653602 71.81396466 77.3828125 75.53515625 C77.37923339 78.13108616 77.3778784 80.72702001 77.37864685 83.32295227 C77.37396374 88.75243397 77.34991779 94.18127941 77.30883789 99.6105957 C77.26159931 105.87681193 77.24584655 112.14247561 77.24804455 118.40885705 C77.24987867 124.45576778 77.23420922 130.50245477 77.20966911 136.54932594 C77.20012877 139.11494684 77.19421149 141.68058387 77.19198799 144.24622154 C77.18548037 147.82938547 77.15921419 151.41185788 77.12719727 154.99487305 C77.1292366 156.58236107 77.1292366 156.58236107 77.13131714 158.20191956 C77.04189982 165.04852058 76.0654291 169.42021374 71.58203125 174.80859375 C67.80958544 178.02536848 63.77115581 180.32119052 59.44140625 182.7109375 C58.52464111 183.2260791 57.60787598 183.7412207 56.66333008 184.27197266 C53.6772977 185.94752297 50.68484462 187.61115943 47.69140625 189.2734375 C43.58586576 191.5626473 39.48227629 193.85534 35.37890625 196.1484375 C34.34137207 196.727146 33.30383789 197.30585449 32.23486328 197.90209961 C23.73442012 202.65597343 15.31131462 207.53514313 6.9206543 212.47998047 C1.40446504 215.72400092 -4.15819746 218.85333911 -9.78662109 221.8984375 C-13.71209592 224.0386383 -17.57247674 226.28604901 -21.4296875 228.546875 C-26.06460373 231.22858052 -30.18158573 233.55610473 -35.62109375 233.5859375 C-36.66716797 233.61107422 -36.66716797 233.61107422 -37.734375 233.63671875 C-46.75995029 232.36300327 -54.35234446 226.89633449 -61.99609375 222.2734375 C-63.21773931 221.54106642 -64.4397422 220.80929104 -65.66210938 220.078125 C-68.8818561 218.15025416 -72.09556526 216.21248689 -75.30859375 214.2734375 C-76.97494896 213.27291859 -78.64150332 212.2727309 -80.30859375 211.2734375 C-79.30859375 208.2734375 -79.30859375 208.2734375 -76.796875 206.921875 C-75.74886719 206.50164062 -74.70085937 206.08140625 -73.62109375 205.6484375 C-72.06841797 205.01035156 -72.06841797 205.01035156 -70.484375 204.359375 C-62.69895734 201.69720266 -62.69895734 201.69720266 -58.703125 203.35327148 C-57.85105469 203.90313721 -56.99898438 204.45300293 -56.12109375 205.01953125 C-55.17492187 205.60927734 -54.22875 206.19902344 -53.25390625 206.80664062 C-51.79597656 207.74926758 -51.79597656 207.74926758 -50.30859375 208.7109375 C-48.37884194 209.9509438 -46.44153726 211.17929167 -44.49609375 212.39453125 C-43.64402344 212.9455249 -42.79195313 213.49651855 -41.9140625 214.06420898 C-38.77141952 215.52274634 -36.7405038 215.6385101 -33.30859375 215.2734375 C-31.05937401 214.44823051 -31.05937401 214.44823051 -29.0078125 213.140625 C-28.20883545 212.67156738 -27.4098584 212.20250977 -26.58666992 211.71923828 C-25.30433472 210.94169189 -25.30433472 210.94169189 -23.99609375 210.1484375 C-22.11151943 209.03763215 -20.22606533 207.92831839 -18.33984375 206.8203125 C-17.35371094 206.23701172 -16.36757813 205.65371094 -15.3515625 205.05273438 C-10.27859195 202.08644671 -5.13429355 199.24969288 0.00390625 196.3984375 C9.35216565 191.18911311 18.60724937 185.83706785 27.83154297 180.41186523 C35.79961359 175.74583618 43.87057707 171.28866868 52.00268555 166.91552734 C52.86804932 166.44969238 53.73341309 165.98385742 54.625 165.50390625 C55.38868896 165.09551514 56.15237793 164.68712402 56.93920898 164.26635742 C58.6591231 163.39458154 58.6591231 163.39458154 59.69140625 162.2734375 C59.82350956 160.89318334 59.8885791 159.50643153 59.92605591 158.12037659 C59.96496948 156.77689903 59.96496948 156.77689903 60.00466919 155.40628052 C60.02778168 154.41570648 60.05089417 153.42513245 60.07470703 152.40454102 C60.11588654 150.84833794 60.11588654 150.84833794 60.15789795 149.26069641 C60.39810737 139.66346723 60.54128269 130.0645643 60.65434456 120.46507359 C60.73179332 114.01309735 60.84153488 107.5652794 61.02880859 101.11547852 C61.20894644 94.88283288 61.30510399 88.65400533 61.3432579 82.41892815 C61.37207427 80.04584495 61.43046818 77.67292444 61.51938248 75.30133247 C62.44791108 63.13516802 62.44791108 63.13516802 58.04847145 52.32094193 C54.03384241 49.03111073 49.62035882 46.9668036 44.80028057 45.11905289 C41.67224159 43.86477336 38.87573557 42.20905069 35.96875 40.5078125 C33.85632036 39.34480599 31.74302863 38.18336407 29.62890625 37.0234375 C20.85051093 32.18073771 12.14162587 27.23931223 3.50390625 22.1484375 C-5.85174531 16.63464151 -15.33101794 11.38858357 -24.90893555 6.27099609 C-25.86453369 5.76004395 -26.82013184 5.2490918 -27.8046875 4.72265625 C-28.65216553 4.27237061 -29.49964355 3.82208496 -30.37280273 3.3581543 C-32.30859375 2.2734375 -32.30859375 2.2734375 -33.30859375 1.2734375 C-39.75685805 0.15518097 -44.4341382 3.80101643 -49.74609375 6.9609375 C-51.82012854 8.16437959 -53.89435249 9.36749575 -55.96875 10.5703125 C-57.02465332 11.18841797 -58.08055664 11.80652344 -59.16845703 12.44335938 C-63.97975742 15.24739512 -68.83145327 17.97839856 -73.68359375 20.7109375 C-74.62509277 21.24356201 -75.5665918 21.77618652 -76.53662109 22.32495117 C-81.52831244 25.14856402 -86.52807903 27.95685128 -91.5390625 30.74609375 C-92.59625488 31.33527588 -93.65344727 31.92445801 -94.74267578 32.53149414 C-96.71232216 33.62821858 -98.68318161 34.72277 -100.65576172 35.81420898 C-102.57900717 36.88544845 -104.48690686 37.98463782 -106.37965393 39.10888672 C-109.39742787 40.84647157 -112.49033796 42.2452873 -115.68080139 43.63771057 C-126.21390249 48.36576904 -126.21390249 48.36576904 -133.61622047 56.79117966 C-135.70702267 63.94023611 -135.44486442 71.29513942 -135.30078125 78.67578125 C-135.32072069 81.04510836 -135.34688322 83.41439041 -135.37893677 85.78358459 C-135.42024889 90.73480161 -135.38169299 95.67726918 -135.28662109 100.62768555 C-135.17239478 106.94444155 -135.2673576 113.23844982 -135.41662216 119.55373192 C-137.17342489 143.77054144 -137.17342489 143.77054144 -129.91711426 165.92266846 C-123.61244636 171.86652146 -116.56004796 174.22641014 -108.30859375 176.2734375 C-106.92861428 176.80952699 -105.55922699 177.37513892 -104.2109375 177.98657227 C-99.85908284 179.91613367 -95.97862696 179.85125517 -91.30859375 179.2734375 C-88.17154789 178.03169018 -86.85170548 177.23544963 -85.20252991 174.31427002 C-83.88125304 169.81978613 -84.00838863 165.4696284 -84.00561523 160.80761719 C-83.99295624 159.228853 -83.99295624 159.228853 -83.9800415 157.61819458 C-83.95427726 154.14389593 -83.94212874 150.66968214 -83.9296875 147.1953125 C-83.9135155 144.78346074 -83.89633582 142.37161554 -83.87818909 139.95977783 C-83.83250729 133.61445132 -83.79769334 127.26911615 -83.76599121 120.92370605 C-83.71410043 110.75215835 -83.64916059 100.58070659 -83.57777596 90.40927887 C-83.55486428 86.84779216 -83.53864668 83.28631783 -83.52305603 79.72479248 C-83.50965652 77.5570868 -83.49604235 75.38938244 -83.48217773 73.22167969 C-83.47956436 72.22325043 -83.47695099 71.22482117 -83.47425842 70.19613647 C-83.46735992 69.29325897 -83.46046143 68.39038147 -83.45335388 67.46014404 C-83.44757151 66.27662416 -83.44757151 66.27662416 -83.44167233 65.06919479 C-83.30859375 63.2734375 -83.30859375 63.2734375 -82.30859375 62.2734375 C-79.61204521 62.20024129 -76.94167917 62.18101213 -74.24609375 62.2109375 C-73.48748047 62.21544922 -72.72886719 62.21996094 -71.94726562 62.22460938 C-70.06767504 62.2364307 -68.18812476 62.25436672 -66.30859375 62.2734375 C-66.2149692 77.11207358 -66.14452609 91.95067032 -66.10134506 106.7895422 C-66.08075846 113.68018939 -66.05271319 120.57065258 -66.00683594 127.46118164 C-65.96256495 134.11365396 -65.93944084 140.76598568 -65.92908478 147.41861153 C-65.92170661 149.95388353 -65.90729882 152.48914535 -65.88567352 155.02433586 C-65.85654375 158.58147457 -65.85264192 162.13782914 -65.85449219 165.69506836 C-65.84011108 166.73804581 -65.82572998 167.78102325 -65.81091309 168.85560608 C-65.86069488 177.72797943 -68.35044808 185.20783691 -74.51171875 191.765625 C-81.85488864 197.92750234 -91.21555443 198.30847691 -100.38476562 197.51757812 C-113.83133994 195.81116006 -126.95718799 186.12411045 -138.30859375 179.2734375 C-138.9934082 178.88800781 -139.67822266 178.50257813 -140.38378906 178.10546875 C-145.7716861 174.78715291 -148.14359873 170.11605246 -150.30859375 164.2734375 C-150.96235843 160.50224779 -150.99440914 156.83659046 -150.95556641 153.015625 C-150.964328 151.93782776 -150.9730896 150.86003052 -150.9821167 149.74957275 C-151.00397815 146.21544165 -150.98960391 142.68257953 -150.97265625 139.1484375 C-150.97602816 136.67561607 -150.98088389 134.20279626 -150.9871521 131.72998047 C-150.99450554 126.55875804 -150.98386648 121.38796877 -150.96044922 116.21679688 C-150.93196336 109.60604367 -150.94837541 102.99630561 -150.97831154 96.3855896 C-150.99642531 91.28271917 -150.99060758 86.1800873 -150.97767258 81.07720947 C-150.97434989 78.64048135 -150.97838536 76.20373118 -150.99007034 73.76702881 C-151.00284555 70.3545234 -150.98330627 66.94363569 -150.95556641 63.53125 C-150.96568756 62.53563049 -150.97580872 61.54001099 -150.98623657 60.51422119 C-150.86741534 52.57815111 -148.71779727 45.67150805 -142.9909668 39.96337891 C-142.21277588 39.48046387 -141.43458496 38.99754883 -140.6328125 38.5 C-139.76060059 37.94860352 -138.88838867 37.39720703 -137.98974609 36.82910156 C-137.10496582 36.31573242 -136.22018555 35.80236328 -135.30859375 35.2734375 C-134.48439941 34.79358398 -133.66020508 34.31373047 -132.81103516 33.81933594 C-130.26785922 32.3879555 -127.70096885 31.01246851 -125.12109375 29.6484375 C-123.17756385 28.60439251 -121.23488198 27.55876764 -119.29296875 26.51171875 C-118.30361328 25.97885254 -117.31425781 25.44598633 -116.29492188 24.89697266 C-111.45528402 22.26587458 -106.66199333 19.55450972 -101.87109375 16.8359375 C-100.44373901 16.02648682 -100.44373901 16.02648682 -98.98754883 15.20068359 C-97.05800855 14.10576349 -95.12872793 13.01038567 -93.19970703 11.91455078 C-87.46370562 8.65856349 -81.72004622 5.4160848 -75.97558594 2.17504883 C-70.9388012 -0.66819972 -65.90983468 -3.52426041 -60.890625 -6.3984375 C-59.84132813 -6.99720703 -58.79203125 -7.59597656 -57.7109375 -8.21289062 C-55.69438087 -9.36393401 -53.67995178 -10.51871505 -51.66796875 -11.67773438 C-50.76175781 -12.19400391 -49.85554688 -12.71027344 -48.921875 -13.2421875 C-47.72751831 -13.92716309 -47.72751831 -13.92716309 -46.5090332 -14.62597656 C-30.76290463 -22.50166142 -13.218726 -7.64096433 0 0 Z " fill="#7DB144" transform="translate(292.30859375,184.7265625)"/>
<path d="M0 0 C1.62228516 -0.01836914 1.62228516 -0.01836914 3.27734375 -0.03710938 C15.41516806 -0.05907166 28.90809598 1.60785333 38.1484375 10.30078125 C43.4165943 16.50692695 46.31585974 23.09713201 46.9375 31.19140625 C46.75 33.1875 46.75 33.1875 44.75 35.1875 C41.5625 35.453125 41.5625 35.453125 37.75 35.4375 C36.491875 35.44265625 35.23375 35.4478125 33.9375 35.453125 C30.75 35.1875 30.75 35.1875 28.75 33.1875 C28.27049351 31.93191363 27.83741331 30.65815742 27.4375 29.375 C25.63224545 24.51402189 23.53467776 21.4929822 18.68359375 19.21875 C12.42744131 17.10399425 6.16666457 16.88304795 -0.375 16.8125 C-1.20974854 16.79856201 -2.04449707 16.78462402 -2.90454102 16.77026367 C-9.81657703 16.82269464 -16.54562284 17.74696451 -21.8125 22.5 C-23.54701602 25.74279083 -23.79041657 27.55898874 -23.25 31.1875 C-21.65007675 34.11513734 -20.56755774 35.06030024 -17.44140625 36.3125 C-8.40450898 38.491472 0.59594066 39.90235159 9.8125 41.125 C38.83217102 45.04533247 38.83217102 45.04533247 46.75 55.1875 C49.5910431 59.80584681 50.23404062 63.73400613 50.125 69.0625 C50.11557373 69.77067871 50.10614746 70.47885742 50.09643555 71.20849609 C49.88564685 78.49960152 48.46044647 84.22884029 43.359375 89.75 C29.33330476 102.27814041 10.43963377 102.13467742 -7.25 101.1875 C-19.71409597 100.28484226 -31.72844835 96.79997493 -40.25 87.1875 C-45.04391331 80.59945746 -46.65646549 74.18132128 -46.25 66.1875 C-45.25 65.1875 -45.25 65.1875 -41.65234375 65.08984375 C-40.16403133 65.0965178 -38.67573568 65.10847817 -37.1875 65.125 C-36.42888672 65.12951172 -35.67027344 65.13402344 -34.88867188 65.13867188 C-33.00908129 65.1504932 -31.12953101 65.16842922 -29.25 65.1875 C-28.816875 66.404375 -28.38375 67.62125 -27.9375 68.875 C-25.52580122 75.2057093 -23.33940986 78.79148296 -17.25 82.1875 C-10.82084286 84.59950688 -4.62258661 84.48548652 2.1875 84.4375 C3.28126953 84.44523437 4.37503906 84.45296875 5.50195312 84.4609375 C14.35516383 84.43961731 21.54291792 83.85020735 28.75 78.1875 C30.72944936 75.21832597 31.04350581 74.53047721 31.0625 71.1875 C31.08763672 70.1665625 31.08763672 70.1665625 31.11328125 69.125 C30.63322333 66.56469108 29.72334846 65.86782539 27.75 64.1875 C19.34296844 59.87757824 10.12184314 59.11326582 0.875 58.1875 C-13.58419967 56.73240067 -27.91205108 54.99812946 -38.91015625 44.62109375 C-43.77124278 38.56843169 -43.0928464 30.42857337 -42.48486328 23.07519531 C-41.6418174 16.29927975 -37.8171353 12.00999649 -32.6640625 7.79296875 C-22.37810581 0.95230823 -11.98828467 0.00704365 0 0 Z " fill="#7DB144" transform="translate(281.25,243.8125)"/>
<path d="M0 0 C13.86 0 27.72 0 42 0 C42 0.66 42 1.32 42 2 C24.23366873 11.7660324 24.23366873 11.7660324 15 9.51171875 C9.46542572 7.74973514 4.57232018 4.53508088 0 1 C0 0.67 0 0.34 0 0 Z " fill="#76A641" transform="translate(235,408)"/>
<path d="M0 0 C0 3 0 3 -1.75 5.04296875 C-2.4925 5.75066406 -3.235 6.45835938 -4 7.1875 C-4.7425 7.90292969 -5.485 8.61835937 -6.25 9.35546875 C-6.8275 9.89816406 -7.405 10.44085938 -8 11 C-8 7.0234755 -6.61988497 5.9109833 -4 3 C-1.75 1.1875 -1.75 1.1875 0 0 Z " fill="#9AC072" transform="translate(35,68)"/>
</svg>
